G04 #@! TF.GenerationSoftware,KiCad,Pcbnew,(5.1.9)-1*
G04 #@! TF.CreationDate,2021-04-14T09:49:37+02:00*
G04 #@! TF.ProjectId,Copy_bachelorproef morse,436f7079-5f62-4616-9368-656c6f727072,rev?*
G04 #@! TF.SameCoordinates,Original*
G04 #@! TF.FileFunction,Soldermask,Top*
G04 #@! TF.FilePolarity,Negative*
%FSLAX46Y46*%
G04 Gerber Fmt 4.6, Leading zero omitted, Abs format (unit mm)*
G04 Created by KiCad (PCBNEW (5.1.9)-1) date 2021-04-14 09:49:37*
%MOMM*%
%LPD*%
G01*
G04 APERTURE LIST*
%ADD10C,0.000100*%
%ADD11C,2.202000*%
%ADD12C,0.602000*%
%ADD13O,2.102000X2.102000*%
%ADD14C,2.102000*%
%ADD15C,1.402000*%
G04 APERTURE END LIST*
D10*
G36*
X113926500Y-102455000D02*
G01*
X112626500Y-102455000D01*
X112626500Y-104555000D01*
X113926500Y-104555000D01*
X113956590Y-104554210D01*
X113986600Y-104551850D01*
X114016450Y-104547920D01*
X114046050Y-104542430D01*
X114075320Y-104535410D01*
X114104180Y-104526860D01*
X114132560Y-104516810D01*
X114160370Y-104505290D01*
X114187540Y-104492329D01*
X114214000Y-104477965D01*
X114239670Y-104462236D01*
X114264480Y-104445185D01*
X114288360Y-104426859D01*
X114311250Y-104407308D01*
X114333090Y-104386586D01*
X114353810Y-104364750D01*
X114373360Y-104341859D01*
X114391680Y-104317977D01*
X114408740Y-104293167D01*
X114424460Y-104267500D01*
X114438830Y-104241045D01*
X114451790Y-104213874D01*
X114463310Y-104186062D01*
X114473360Y-104157685D01*
X114481910Y-104128821D01*
X114488930Y-104099549D01*
X114494420Y-104069950D01*
X114498350Y-104040104D01*
X114500710Y-104010093D01*
X114501500Y-103980000D01*
X114501500Y-103030000D01*
X114500710Y-102999907D01*
X114498350Y-102969896D01*
X114494420Y-102940050D01*
X114488930Y-102910451D01*
X114481910Y-102881179D01*
X114473360Y-102852315D01*
X114463310Y-102823938D01*
X114451790Y-102796126D01*
X114438830Y-102768955D01*
X114424460Y-102742500D01*
X114408740Y-102716833D01*
X114391680Y-102692023D01*
X114373360Y-102668141D01*
X114353810Y-102645250D01*
X114333090Y-102623414D01*
X114311250Y-102602692D01*
X114288360Y-102583141D01*
X114264480Y-102564815D01*
X114239670Y-102547764D01*
X114214000Y-102532035D01*
X114187540Y-102517671D01*
X114160370Y-102504710D01*
X114132560Y-102493190D01*
X114104180Y-102483140D01*
X114075320Y-102474590D01*
X114046050Y-102467570D01*
X114016450Y-102462080D01*
X113986600Y-102458150D01*
X113956590Y-102455790D01*
X113926500Y-102455000D01*
G37*
X113926500Y-102455000D02*
X112626500Y-102455000D01*
X112626500Y-104555000D01*
X113926500Y-104555000D01*
X113956590Y-104554210D01*
X113986600Y-104551850D01*
X114016450Y-104547920D01*
X114046050Y-104542430D01*
X114075320Y-104535410D01*
X114104180Y-104526860D01*
X114132560Y-104516810D01*
X114160370Y-104505290D01*
X114187540Y-104492329D01*
X114214000Y-104477965D01*
X114239670Y-104462236D01*
X114264480Y-104445185D01*
X114288360Y-104426859D01*
X114311250Y-104407308D01*
X114333090Y-104386586D01*
X114353810Y-104364750D01*
X114373360Y-104341859D01*
X114391680Y-104317977D01*
X114408740Y-104293167D01*
X114424460Y-104267500D01*
X114438830Y-104241045D01*
X114451790Y-104213874D01*
X114463310Y-104186062D01*
X114473360Y-104157685D01*
X114481910Y-104128821D01*
X114488930Y-104099549D01*
X114494420Y-104069950D01*
X114498350Y-104040104D01*
X114500710Y-104010093D01*
X114501500Y-103980000D01*
X114501500Y-103030000D01*
X114500710Y-102999907D01*
X114498350Y-102969896D01*
X114494420Y-102940050D01*
X114488930Y-102910451D01*
X114481910Y-102881179D01*
X114473360Y-102852315D01*
X114463310Y-102823938D01*
X114451790Y-102796126D01*
X114438830Y-102768955D01*
X114424460Y-102742500D01*
X114408740Y-102716833D01*
X114391680Y-102692023D01*
X114373360Y-102668141D01*
X114353810Y-102645250D01*
X114333090Y-102623414D01*
X114311250Y-102602692D01*
X114288360Y-102583141D01*
X114264480Y-102564815D01*
X114239670Y-102547764D01*
X114214000Y-102532035D01*
X114187540Y-102517671D01*
X114160370Y-102504710D01*
X114132560Y-102493190D01*
X114104180Y-102483140D01*
X114075320Y-102474590D01*
X114046050Y-102467570D01*
X114016450Y-102462080D01*
X113986600Y-102458150D01*
X113956590Y-102455790D01*
X113926500Y-102455000D01*
G36*
X106926500Y-102455000D02*
G01*
X108226500Y-102455000D01*
X108226500Y-104555000D01*
X106926500Y-104555000D01*
X106896410Y-104554210D01*
X106866400Y-104551850D01*
X106836550Y-104547920D01*
X106806950Y-104542430D01*
X106777680Y-104535410D01*
X106748820Y-104526860D01*
X106720440Y-104516810D01*
X106692630Y-104505290D01*
X106665460Y-104492329D01*
X106639000Y-104477965D01*
X106613330Y-104462236D01*
X106588520Y-104445185D01*
X106564640Y-104426859D01*
X106541750Y-104407308D01*
X106519910Y-104386586D01*
X106499190Y-104364750D01*
X106479640Y-104341859D01*
X106461320Y-104317977D01*
X106444260Y-104293167D01*
X106428540Y-104267500D01*
X106414170Y-104241045D01*
X106401210Y-104213874D01*
X106389690Y-104186062D01*
X106379640Y-104157685D01*
X106371090Y-104128821D01*
X106364070Y-104099549D01*
X106358580Y-104069950D01*
X106354650Y-104040104D01*
X106352290Y-104010093D01*
X106351500Y-103980000D01*
X106351500Y-103030000D01*
X106352290Y-102999907D01*
X106354650Y-102969896D01*
X106358580Y-102940050D01*
X106364070Y-102910451D01*
X106371090Y-102881179D01*
X106379640Y-102852315D01*
X106389690Y-102823938D01*
X106401210Y-102796126D01*
X106414170Y-102768955D01*
X106428540Y-102742500D01*
X106444260Y-102716833D01*
X106461320Y-102692023D01*
X106479640Y-102668141D01*
X106499190Y-102645250D01*
X106519910Y-102623414D01*
X106541750Y-102602692D01*
X106564640Y-102583141D01*
X106588520Y-102564815D01*
X106613330Y-102547764D01*
X106639000Y-102532035D01*
X106665460Y-102517671D01*
X106692630Y-102504710D01*
X106720440Y-102493190D01*
X106748820Y-102483140D01*
X106777680Y-102474590D01*
X106806950Y-102467570D01*
X106836550Y-102462080D01*
X106866400Y-102458150D01*
X106896410Y-102455790D01*
X106926500Y-102455000D01*
G37*
X106926500Y-102455000D02*
X108226500Y-102455000D01*
X108226500Y-104555000D01*
X106926500Y-104555000D01*
X106896410Y-104554210D01*
X106866400Y-104551850D01*
X106836550Y-104547920D01*
X106806950Y-104542430D01*
X106777680Y-104535410D01*
X106748820Y-104526860D01*
X106720440Y-104516810D01*
X106692630Y-104505290D01*
X106665460Y-104492329D01*
X106639000Y-104477965D01*
X106613330Y-104462236D01*
X106588520Y-104445185D01*
X106564640Y-104426859D01*
X106541750Y-104407308D01*
X106519910Y-104386586D01*
X106499190Y-104364750D01*
X106479640Y-104341859D01*
X106461320Y-104317977D01*
X106444260Y-104293167D01*
X106428540Y-104267500D01*
X106414170Y-104241045D01*
X106401210Y-104213874D01*
X106389690Y-104186062D01*
X106379640Y-104157685D01*
X106371090Y-104128821D01*
X106364070Y-104099549D01*
X106358580Y-104069950D01*
X106354650Y-104040104D01*
X106352290Y-104010093D01*
X106351500Y-103980000D01*
X106351500Y-103030000D01*
X106352290Y-102999907D01*
X106354650Y-102969896D01*
X106358580Y-102940050D01*
X106364070Y-102910451D01*
X106371090Y-102881179D01*
X106379640Y-102852315D01*
X106389690Y-102823938D01*
X106401210Y-102796126D01*
X106414170Y-102768955D01*
X106428540Y-102742500D01*
X106444260Y-102716833D01*
X106461320Y-102692023D01*
X106479640Y-102668141D01*
X106499190Y-102645250D01*
X106519910Y-102623414D01*
X106541750Y-102602692D01*
X106564640Y-102583141D01*
X106588520Y-102564815D01*
X106613330Y-102547764D01*
X106639000Y-102532035D01*
X106665460Y-102517671D01*
X106692630Y-102504710D01*
X106720440Y-102493190D01*
X106748820Y-102483140D01*
X106777680Y-102474590D01*
X106806950Y-102467570D01*
X106836550Y-102462080D01*
X106866400Y-102458150D01*
X106896410Y-102455790D01*
X106926500Y-102455000D01*
G36*
X113926500Y-102455000D02*
G01*
X112626500Y-102455000D01*
X112626500Y-104555000D01*
X113926500Y-104555000D01*
X113956590Y-104554210D01*
X113986600Y-104551850D01*
X114016450Y-104547920D01*
X114046050Y-104542430D01*
X114075320Y-104535410D01*
X114104180Y-104526860D01*
X114132560Y-104516810D01*
X114160370Y-104505290D01*
X114187540Y-104492329D01*
X114214000Y-104477965D01*
X114239670Y-104462236D01*
X114264480Y-104445185D01*
X114288360Y-104426859D01*
X114311250Y-104407308D01*
X114333090Y-104386586D01*
X114353810Y-104364750D01*
X114373360Y-104341859D01*
X114391680Y-104317977D01*
X114408740Y-104293167D01*
X114424460Y-104267500D01*
X114438830Y-104241045D01*
X114451790Y-104213874D01*
X114463310Y-104186062D01*
X114473360Y-104157685D01*
X114481910Y-104128821D01*
X114488930Y-104099549D01*
X114494420Y-104069950D01*
X114498350Y-104040104D01*
X114500710Y-104010093D01*
X114501500Y-103980000D01*
X114501500Y-103030000D01*
X114500710Y-102999907D01*
X114498350Y-102969896D01*
X114494420Y-102940050D01*
X114488930Y-102910451D01*
X114481910Y-102881179D01*
X114473360Y-102852315D01*
X114463310Y-102823938D01*
X114451790Y-102796126D01*
X114438830Y-102768955D01*
X114424460Y-102742500D01*
X114408740Y-102716833D01*
X114391680Y-102692023D01*
X114373360Y-102668141D01*
X114353810Y-102645250D01*
X114333090Y-102623414D01*
X114311250Y-102602692D01*
X114288360Y-102583141D01*
X114264480Y-102564815D01*
X114239670Y-102547764D01*
X114214000Y-102532035D01*
X114187540Y-102517671D01*
X114160370Y-102504710D01*
X114132560Y-102493190D01*
X114104180Y-102483140D01*
X114075320Y-102474590D01*
X114046050Y-102467570D01*
X114016450Y-102462080D01*
X113986600Y-102458150D01*
X113956590Y-102455790D01*
X113926500Y-102455000D01*
G37*
X113926500Y-102455000D02*
X112626500Y-102455000D01*
X112626500Y-104555000D01*
X113926500Y-104555000D01*
X113956590Y-104554210D01*
X113986600Y-104551850D01*
X114016450Y-104547920D01*
X114046050Y-104542430D01*
X114075320Y-104535410D01*
X114104180Y-104526860D01*
X114132560Y-104516810D01*
X114160370Y-104505290D01*
X114187540Y-104492329D01*
X114214000Y-104477965D01*
X114239670Y-104462236D01*
X114264480Y-104445185D01*
X114288360Y-104426859D01*
X114311250Y-104407308D01*
X114333090Y-104386586D01*
X114353810Y-104364750D01*
X114373360Y-104341859D01*
X114391680Y-104317977D01*
X114408740Y-104293167D01*
X114424460Y-104267500D01*
X114438830Y-104241045D01*
X114451790Y-104213874D01*
X114463310Y-104186062D01*
X114473360Y-104157685D01*
X114481910Y-104128821D01*
X114488930Y-104099549D01*
X114494420Y-104069950D01*
X114498350Y-104040104D01*
X114500710Y-104010093D01*
X114501500Y-103980000D01*
X114501500Y-103030000D01*
X114500710Y-102999907D01*
X114498350Y-102969896D01*
X114494420Y-102940050D01*
X114488930Y-102910451D01*
X114481910Y-102881179D01*
X114473360Y-102852315D01*
X114463310Y-102823938D01*
X114451790Y-102796126D01*
X114438830Y-102768955D01*
X114424460Y-102742500D01*
X114408740Y-102716833D01*
X114391680Y-102692023D01*
X114373360Y-102668141D01*
X114353810Y-102645250D01*
X114333090Y-102623414D01*
X114311250Y-102602692D01*
X114288360Y-102583141D01*
X114264480Y-102564815D01*
X114239670Y-102547764D01*
X114214000Y-102532035D01*
X114187540Y-102517671D01*
X114160370Y-102504710D01*
X114132560Y-102493190D01*
X114104180Y-102483140D01*
X114075320Y-102474590D01*
X114046050Y-102467570D01*
X114016450Y-102462080D01*
X113986600Y-102458150D01*
X113956590Y-102455790D01*
X113926500Y-102455000D01*
G36*
X106926500Y-102455000D02*
G01*
X108226500Y-102455000D01*
X108226500Y-104555000D01*
X106926500Y-104555000D01*
X106896410Y-104554210D01*
X106866400Y-104551850D01*
X106836550Y-104547920D01*
X106806950Y-104542430D01*
X106777680Y-104535410D01*
X106748820Y-104526860D01*
X106720440Y-104516810D01*
X106692630Y-104505290D01*
X106665460Y-104492329D01*
X106639000Y-104477965D01*
X106613330Y-104462236D01*
X106588520Y-104445185D01*
X106564640Y-104426859D01*
X106541750Y-104407308D01*
X106519910Y-104386586D01*
X106499190Y-104364750D01*
X106479640Y-104341859D01*
X106461320Y-104317977D01*
X106444260Y-104293167D01*
X106428540Y-104267500D01*
X106414170Y-104241045D01*
X106401210Y-104213874D01*
X106389690Y-104186062D01*
X106379640Y-104157685D01*
X106371090Y-104128821D01*
X106364070Y-104099549D01*
X106358580Y-104069950D01*
X106354650Y-104040104D01*
X106352290Y-104010093D01*
X106351500Y-103980000D01*
X106351500Y-103030000D01*
X106352290Y-102999907D01*
X106354650Y-102969896D01*
X106358580Y-102940050D01*
X106364070Y-102910451D01*
X106371090Y-102881179D01*
X106379640Y-102852315D01*
X106389690Y-102823938D01*
X106401210Y-102796126D01*
X106414170Y-102768955D01*
X106428540Y-102742500D01*
X106444260Y-102716833D01*
X106461320Y-102692023D01*
X106479640Y-102668141D01*
X106499190Y-102645250D01*
X106519910Y-102623414D01*
X106541750Y-102602692D01*
X106564640Y-102583141D01*
X106588520Y-102564815D01*
X106613330Y-102547764D01*
X106639000Y-102532035D01*
X106665460Y-102517671D01*
X106692630Y-102504710D01*
X106720440Y-102493190D01*
X106748820Y-102483140D01*
X106777680Y-102474590D01*
X106806950Y-102467570D01*
X106836550Y-102462080D01*
X106866400Y-102458150D01*
X106896410Y-102455790D01*
X106926500Y-102455000D01*
G37*
X106926500Y-102455000D02*
X108226500Y-102455000D01*
X108226500Y-104555000D01*
X106926500Y-104555000D01*
X106896410Y-104554210D01*
X106866400Y-104551850D01*
X106836550Y-104547920D01*
X106806950Y-104542430D01*
X106777680Y-104535410D01*
X106748820Y-104526860D01*
X106720440Y-104516810D01*
X106692630Y-104505290D01*
X106665460Y-104492329D01*
X106639000Y-104477965D01*
X106613330Y-104462236D01*
X106588520Y-104445185D01*
X106564640Y-104426859D01*
X106541750Y-104407308D01*
X106519910Y-104386586D01*
X106499190Y-104364750D01*
X106479640Y-104341859D01*
X106461320Y-104317977D01*
X106444260Y-104293167D01*
X106428540Y-104267500D01*
X106414170Y-104241045D01*
X106401210Y-104213874D01*
X106389690Y-104186062D01*
X106379640Y-104157685D01*
X106371090Y-104128821D01*
X106364070Y-104099549D01*
X106358580Y-104069950D01*
X106354650Y-104040104D01*
X106352290Y-104010093D01*
X106351500Y-103980000D01*
X106351500Y-103030000D01*
X106352290Y-102999907D01*
X106354650Y-102969896D01*
X106358580Y-102940050D01*
X106364070Y-102910451D01*
X106371090Y-102881179D01*
X106379640Y-102852315D01*
X106389690Y-102823938D01*
X106401210Y-102796126D01*
X106414170Y-102768955D01*
X106428540Y-102742500D01*
X106444260Y-102716833D01*
X106461320Y-102692023D01*
X106479640Y-102668141D01*
X106499190Y-102645250D01*
X106519910Y-102623414D01*
X106541750Y-102602692D01*
X106564640Y-102583141D01*
X106588520Y-102564815D01*
X106613330Y-102547764D01*
X106639000Y-102532035D01*
X106665460Y-102517671D01*
X106692630Y-102504710D01*
X106720440Y-102493190D01*
X106748820Y-102483140D01*
X106777680Y-102474590D01*
X106806950Y-102467570D01*
X106836550Y-102462080D01*
X106866400Y-102458150D01*
X106896410Y-102455790D01*
X106926500Y-102455000D01*
G36*
G01*
X154300000Y-91627000D02*
X150500000Y-91627000D01*
G75*
G02*
X150449000Y-91576000I0J51000D01*
G01*
X150449000Y-89576000D01*
G75*
G02*
X150500000Y-89525000I51000J0D01*
G01*
X154300000Y-89525000D01*
G75*
G02*
X154351000Y-89576000I0J-51000D01*
G01*
X154351000Y-91576000D01*
G75*
G02*
X154300000Y-91627000I-51000J0D01*
G01*
G37*
G36*
G01*
X153150000Y-97927000D02*
X151650000Y-97927000D01*
G75*
G02*
X151599000Y-97876000I0J51000D01*
G01*
X151599000Y-95876000D01*
G75*
G02*
X151650000Y-95825000I51000J0D01*
G01*
X153150000Y-95825000D01*
G75*
G02*
X153201000Y-95876000I0J-51000D01*
G01*
X153201000Y-97876000D01*
G75*
G02*
X153150000Y-97927000I-51000J0D01*
G01*
G37*
G36*
G01*
X155450000Y-97927000D02*
X153950000Y-97927000D01*
G75*
G02*
X153899000Y-97876000I0J51000D01*
G01*
X153899000Y-95876000D01*
G75*
G02*
X153950000Y-95825000I51000J0D01*
G01*
X155450000Y-95825000D01*
G75*
G02*
X155501000Y-95876000I0J-51000D01*
G01*
X155501000Y-97876000D01*
G75*
G02*
X155450000Y-97927000I-51000J0D01*
G01*
G37*
G36*
G01*
X150850000Y-97927000D02*
X149350000Y-97927000D01*
G75*
G02*
X149299000Y-97876000I0J51000D01*
G01*
X149299000Y-95876000D01*
G75*
G02*
X149350000Y-95825000I51000J0D01*
G01*
X150850000Y-95825000D01*
G75*
G02*
X150901000Y-95876000I0J-51000D01*
G01*
X150901000Y-97876000D01*
G75*
G02*
X150850000Y-97927000I-51000J0D01*
G01*
G37*
G36*
G01*
X113659000Y-93875000D02*
X113659000Y-92575000D01*
G75*
G02*
X113710000Y-92524000I51000J0D01*
G01*
X115010000Y-92524000D01*
G75*
G02*
X115061000Y-92575000I0J-51000D01*
G01*
X115061000Y-93875000D01*
G75*
G02*
X115010000Y-93926000I-51000J0D01*
G01*
X113710000Y-93926000D01*
G75*
G02*
X113659000Y-93875000I0J51000D01*
G01*
G37*
G36*
G01*
X108459000Y-93075000D02*
X108459000Y-91075000D01*
G75*
G02*
X108510000Y-91024000I51000J0D01*
G01*
X109810000Y-91024000D01*
G75*
G02*
X109861000Y-91075000I0J-51000D01*
G01*
X109861000Y-93075000D01*
G75*
G02*
X109810000Y-93126000I-51000J0D01*
G01*
X108510000Y-93126000D01*
G75*
G02*
X108459000Y-93075000I0J51000D01*
G01*
G37*
G36*
G01*
X113659000Y-91575000D02*
X113659000Y-90275000D01*
G75*
G02*
X113710000Y-90224000I51000J0D01*
G01*
X115010000Y-90224000D01*
G75*
G02*
X115061000Y-90275000I0J-51000D01*
G01*
X115061000Y-91575000D01*
G75*
G02*
X115010000Y-91626000I-51000J0D01*
G01*
X113710000Y-91626000D01*
G75*
G02*
X113659000Y-91575000I0J51000D01*
G01*
G37*
D11*
X92329000Y-102743000D03*
X91821000Y-71628000D03*
X156972000Y-71501000D03*
X156591000Y-102870000D03*
D12*
X129527500Y-82320000D03*
X131362500Y-82320000D03*
X128610000Y-83237500D03*
X130445000Y-83237500D03*
X132280000Y-83237500D03*
X129527500Y-84155000D03*
X131362500Y-84155000D03*
X128610000Y-85072500D03*
X130445000Y-85072500D03*
X132280000Y-85072500D03*
X129527500Y-85990000D03*
X131362500Y-85990000D03*
G36*
G01*
X150911000Y-85360000D02*
X150911000Y-87360000D01*
G75*
G02*
X150860000Y-87411000I-51000J0D01*
G01*
X148860000Y-87411000D01*
G75*
G02*
X148809000Y-87360000I0J51000D01*
G01*
X148809000Y-85360000D01*
G75*
G02*
X148860000Y-85309000I51000J0D01*
G01*
X150860000Y-85309000D01*
G75*
G02*
X150911000Y-85360000I0J-51000D01*
G01*
G37*
D13*
X149860000Y-83820000D03*
X149860000Y-81280000D03*
X149860000Y-78740000D03*
G36*
G01*
X138392000Y-98956106D02*
X138392000Y-97639894D01*
G75*
G02*
X138659894Y-97372000I267894J0D01*
G01*
X139651106Y-97372000D01*
G75*
G02*
X139919000Y-97639894I0J-267894D01*
G01*
X139919000Y-98956106D01*
G75*
G02*
X139651106Y-99224000I-267894J0D01*
G01*
X138659894Y-99224000D01*
G75*
G02*
X138392000Y-98956106I0J267894D01*
G01*
G37*
G36*
G01*
X135417000Y-98956106D02*
X135417000Y-97639894D01*
G75*
G02*
X135684894Y-97372000I267894J0D01*
G01*
X136676106Y-97372000D01*
G75*
G02*
X136944000Y-97639894I0J-267894D01*
G01*
X136944000Y-98956106D01*
G75*
G02*
X136676106Y-99224000I-267894J0D01*
G01*
X135684894Y-99224000D01*
G75*
G02*
X135417000Y-98956106I0J267894D01*
G01*
G37*
G36*
G01*
X124997000Y-96750894D02*
X124997000Y-98067106D01*
G75*
G02*
X124729106Y-98335000I-267894J0D01*
G01*
X123737894Y-98335000D01*
G75*
G02*
X123470000Y-98067106I0J267894D01*
G01*
X123470000Y-96750894D01*
G75*
G02*
X123737894Y-96483000I267894J0D01*
G01*
X124729106Y-96483000D01*
G75*
G02*
X124997000Y-96750894I0J-267894D01*
G01*
G37*
G36*
G01*
X127972000Y-96750894D02*
X127972000Y-98067106D01*
G75*
G02*
X127704106Y-98335000I-267894J0D01*
G01*
X126712894Y-98335000D01*
G75*
G02*
X126445000Y-98067106I0J267894D01*
G01*
X126445000Y-96750894D01*
G75*
G02*
X126712894Y-96483000I267894J0D01*
G01*
X127704106Y-96483000D01*
G75*
G02*
X127972000Y-96750894I0J-267894D01*
G01*
G37*
G36*
G01*
X146466000Y-85360000D02*
X146466000Y-87360000D01*
G75*
G02*
X146415000Y-87411000I-51000J0D01*
G01*
X144415000Y-87411000D01*
G75*
G02*
X144364000Y-87360000I0J51000D01*
G01*
X144364000Y-85360000D01*
G75*
G02*
X144415000Y-85309000I51000J0D01*
G01*
X146415000Y-85309000D01*
G75*
G02*
X146466000Y-85360000I0J-51000D01*
G01*
G37*
X145415000Y-83820000D03*
G36*
G01*
X94083894Y-96010500D02*
X95400106Y-96010500D01*
G75*
G02*
X95668000Y-96278394I0J-267894D01*
G01*
X95668000Y-97269606D01*
G75*
G02*
X95400106Y-97537500I-267894J0D01*
G01*
X94083894Y-97537500D01*
G75*
G02*
X93816000Y-97269606I0J267894D01*
G01*
X93816000Y-96278394D01*
G75*
G02*
X94083894Y-96010500I267894J0D01*
G01*
G37*
G36*
G01*
X94083894Y-93035500D02*
X95400106Y-93035500D01*
G75*
G02*
X95668000Y-93303394I0J-267894D01*
G01*
X95668000Y-94294606D01*
G75*
G02*
X95400106Y-94562500I-267894J0D01*
G01*
X94083894Y-94562500D01*
G75*
G02*
X93816000Y-94294606I0J267894D01*
G01*
X93816000Y-93303394D01*
G75*
G02*
X94083894Y-93035500I267894J0D01*
G01*
G37*
G36*
G01*
X106621000Y-93615000D02*
X106621000Y-95615000D01*
G75*
G02*
X106570000Y-95666000I-51000J0D01*
G01*
X104570000Y-95666000D01*
G75*
G02*
X104519000Y-95615000I0J51000D01*
G01*
X104519000Y-93615000D01*
G75*
G02*
X104570000Y-93564000I51000J0D01*
G01*
X106570000Y-93564000D01*
G75*
G02*
X106621000Y-93615000I0J-51000D01*
G01*
G37*
D14*
X105570000Y-92075000D03*
X105570000Y-89535000D03*
X105570000Y-86995000D03*
X97630000Y-86995000D03*
X97630000Y-89535000D03*
X97630000Y-92075000D03*
X97630000Y-94615000D03*
D15*
X107926500Y-100805000D03*
X112926500Y-100805000D03*
G36*
G01*
X111852000Y-83042000D02*
X111852000Y-81042000D01*
G75*
G02*
X111903000Y-80991000I51000J0D01*
G01*
X113903000Y-80991000D01*
G75*
G02*
X113954000Y-81042000I0J-51000D01*
G01*
X113954000Y-83042000D01*
G75*
G02*
X113903000Y-83093000I-51000J0D01*
G01*
X111903000Y-83093000D01*
G75*
G02*
X111852000Y-83042000I0J51000D01*
G01*
G37*
D13*
X112903000Y-84582000D03*
G36*
G01*
X115859000Y-79398106D02*
X115859000Y-78081894D01*
G75*
G02*
X116126894Y-77814000I267894J0D01*
G01*
X117118106Y-77814000D01*
G75*
G02*
X117386000Y-78081894I0J-267894D01*
G01*
X117386000Y-79398106D01*
G75*
G02*
X117118106Y-79666000I-267894J0D01*
G01*
X116126894Y-79666000D01*
G75*
G02*
X115859000Y-79398106I0J267894D01*
G01*
G37*
G36*
G01*
X118834000Y-79398106D02*
X118834000Y-78081894D01*
G75*
G02*
X119101894Y-77814000I267894J0D01*
G01*
X120093106Y-77814000D01*
G75*
G02*
X120361000Y-78081894I0J-267894D01*
G01*
X120361000Y-79398106D01*
G75*
G02*
X120093106Y-79666000I-267894J0D01*
G01*
X119101894Y-79666000D01*
G75*
G02*
X118834000Y-79398106I0J267894D01*
G01*
G37*
G36*
G01*
X120996000Y-85066894D02*
X120996000Y-86383106D01*
G75*
G02*
X120728106Y-86651000I-267894J0D01*
G01*
X119736894Y-86651000D01*
G75*
G02*
X119469000Y-86383106I0J267894D01*
G01*
X119469000Y-85066894D01*
G75*
G02*
X119736894Y-84799000I267894J0D01*
G01*
X120728106Y-84799000D01*
G75*
G02*
X120996000Y-85066894I0J-267894D01*
G01*
G37*
G36*
G01*
X118021000Y-85066894D02*
X118021000Y-86383106D01*
G75*
G02*
X117753106Y-86651000I-267894J0D01*
G01*
X116761894Y-86651000D01*
G75*
G02*
X116494000Y-86383106I0J267894D01*
G01*
X116494000Y-85066894D01*
G75*
G02*
X116761894Y-84799000I267894J0D01*
G01*
X117753106Y-84799000D01*
G75*
G02*
X118021000Y-85066894I0J-267894D01*
G01*
G37*
G36*
G01*
X155852106Y-87595000D02*
X154535894Y-87595000D01*
G75*
G02*
X154268000Y-87327106I0J267894D01*
G01*
X154268000Y-86335894D01*
G75*
G02*
X154535894Y-86068000I267894J0D01*
G01*
X155852106Y-86068000D01*
G75*
G02*
X156120000Y-86335894I0J-267894D01*
G01*
X156120000Y-87327106D01*
G75*
G02*
X155852106Y-87595000I-267894J0D01*
G01*
G37*
G36*
G01*
X155852106Y-84620000D02*
X154535894Y-84620000D01*
G75*
G02*
X154268000Y-84352106I0J267894D01*
G01*
X154268000Y-83360894D01*
G75*
G02*
X154535894Y-83093000I267894J0D01*
G01*
X155852106Y-83093000D01*
G75*
G02*
X156120000Y-83360894I0J-267894D01*
G01*
X156120000Y-84352106D01*
G75*
G02*
X155852106Y-84620000I-267894J0D01*
G01*
G37*
G36*
G01*
X146777000Y-99671894D02*
X146777000Y-100988106D01*
G75*
G02*
X146509106Y-101256000I-267894J0D01*
G01*
X145517894Y-101256000D01*
G75*
G02*
X145250000Y-100988106I0J267894D01*
G01*
X145250000Y-99671894D01*
G75*
G02*
X145517894Y-99404000I267894J0D01*
G01*
X146509106Y-99404000D01*
G75*
G02*
X146777000Y-99671894I0J-267894D01*
G01*
G37*
G36*
G01*
X143802000Y-99671894D02*
X143802000Y-100988106D01*
G75*
G02*
X143534106Y-101256000I-267894J0D01*
G01*
X142542894Y-101256000D01*
G75*
G02*
X142275000Y-100988106I0J267894D01*
G01*
X142275000Y-99671894D01*
G75*
G02*
X142542894Y-99404000I267894J0D01*
G01*
X143534106Y-99404000D01*
G75*
G02*
X143802000Y-99671894I0J-267894D01*
G01*
G37*
G36*
G01*
X94083894Y-90676500D02*
X95400106Y-90676500D01*
G75*
G02*
X95668000Y-90944394I0J-267894D01*
G01*
X95668000Y-91935606D01*
G75*
G02*
X95400106Y-92203500I-267894J0D01*
G01*
X94083894Y-92203500D01*
G75*
G02*
X93816000Y-91935606I0J267894D01*
G01*
X93816000Y-90944394D01*
G75*
G02*
X94083894Y-90676500I267894J0D01*
G01*
G37*
G36*
G01*
X94083894Y-87701500D02*
X95400106Y-87701500D01*
G75*
G02*
X95668000Y-87969394I0J-267894D01*
G01*
X95668000Y-88960606D01*
G75*
G02*
X95400106Y-89228500I-267894J0D01*
G01*
X94083894Y-89228500D01*
G75*
G02*
X93816000Y-88960606I0J267894D01*
G01*
X93816000Y-87969394D01*
G75*
G02*
X94083894Y-87701500I267894J0D01*
G01*
G37*
G36*
G01*
X116149500Y-89812106D02*
X116149500Y-88495894D01*
G75*
G02*
X116417394Y-88228000I267894J0D01*
G01*
X117408606Y-88228000D01*
G75*
G02*
X117676500Y-88495894I0J-267894D01*
G01*
X117676500Y-89812106D01*
G75*
G02*
X117408606Y-90080000I-267894J0D01*
G01*
X116417394Y-90080000D01*
G75*
G02*
X116149500Y-89812106I0J267894D01*
G01*
G37*
G36*
G01*
X119124500Y-89812106D02*
X119124500Y-88495894D01*
G75*
G02*
X119392394Y-88228000I267894J0D01*
G01*
X120383606Y-88228000D01*
G75*
G02*
X120651500Y-88495894I0J-267894D01*
G01*
X120651500Y-89812106D01*
G75*
G02*
X120383606Y-90080000I-267894J0D01*
G01*
X119392394Y-90080000D01*
G75*
G02*
X119124500Y-89812106I0J267894D01*
G01*
G37*
G36*
G01*
X99606000Y-82526894D02*
X99606000Y-83843106D01*
G75*
G02*
X99338106Y-84111000I-267894J0D01*
G01*
X98346894Y-84111000D01*
G75*
G02*
X98079000Y-83843106I0J267894D01*
G01*
X98079000Y-82526894D01*
G75*
G02*
X98346894Y-82259000I267894J0D01*
G01*
X99338106Y-82259000D01*
G75*
G02*
X99606000Y-82526894I0J-267894D01*
G01*
G37*
G36*
G01*
X102581000Y-82526894D02*
X102581000Y-83843106D01*
G75*
G02*
X102313106Y-84111000I-267894J0D01*
G01*
X101321894Y-84111000D01*
G75*
G02*
X101054000Y-83843106I0J267894D01*
G01*
X101054000Y-82526894D01*
G75*
G02*
X101321894Y-82259000I267894J0D01*
G01*
X102313106Y-82259000D01*
G75*
G02*
X102581000Y-82526894I0J-267894D01*
G01*
G37*
G36*
G01*
X107404000Y-83843106D02*
X107404000Y-82526894D01*
G75*
G02*
X107671894Y-82259000I267894J0D01*
G01*
X108663106Y-82259000D01*
G75*
G02*
X108931000Y-82526894I0J-267894D01*
G01*
X108931000Y-83843106D01*
G75*
G02*
X108663106Y-84111000I-267894J0D01*
G01*
X107671894Y-84111000D01*
G75*
G02*
X107404000Y-83843106I0J267894D01*
G01*
G37*
G36*
G01*
X104429000Y-83843106D02*
X104429000Y-82526894D01*
G75*
G02*
X104696894Y-82259000I267894J0D01*
G01*
X105688106Y-82259000D01*
G75*
G02*
X105956000Y-82526894I0J-267894D01*
G01*
X105956000Y-83843106D01*
G75*
G02*
X105688106Y-84111000I-267894J0D01*
G01*
X104696894Y-84111000D01*
G75*
G02*
X104429000Y-83843106I0J267894D01*
G01*
G37*
G36*
G01*
X97574000Y-98338394D02*
X97574000Y-99654606D01*
G75*
G02*
X97306106Y-99922500I-267894J0D01*
G01*
X96314894Y-99922500D01*
G75*
G02*
X96047000Y-99654606I0J267894D01*
G01*
X96047000Y-98338394D01*
G75*
G02*
X96314894Y-98070500I267894J0D01*
G01*
X97306106Y-98070500D01*
G75*
G02*
X97574000Y-98338394I0J-267894D01*
G01*
G37*
G36*
G01*
X100549000Y-98338394D02*
X100549000Y-99654606D01*
G75*
G02*
X100281106Y-99922500I-267894J0D01*
G01*
X99289894Y-99922500D01*
G75*
G02*
X99022000Y-99654606I0J267894D01*
G01*
X99022000Y-98338394D01*
G75*
G02*
X99289894Y-98070500I267894J0D01*
G01*
X100281106Y-98070500D01*
G75*
G02*
X100549000Y-98338394I0J-267894D01*
G01*
G37*
G36*
G01*
X115859000Y-82573106D02*
X115859000Y-81256894D01*
G75*
G02*
X116126894Y-80989000I267894J0D01*
G01*
X117118106Y-80989000D01*
G75*
G02*
X117386000Y-81256894I0J-267894D01*
G01*
X117386000Y-82573106D01*
G75*
G02*
X117118106Y-82841000I-267894J0D01*
G01*
X116126894Y-82841000D01*
G75*
G02*
X115859000Y-82573106I0J267894D01*
G01*
G37*
G36*
G01*
X118834000Y-82573106D02*
X118834000Y-81256894D01*
G75*
G02*
X119101894Y-80989000I267894J0D01*
G01*
X120093106Y-80989000D01*
G75*
G02*
X120361000Y-81256894I0J-267894D01*
G01*
X120361000Y-82573106D01*
G75*
G02*
X120093106Y-82841000I-267894J0D01*
G01*
X119101894Y-82841000D01*
G75*
G02*
X118834000Y-82573106I0J267894D01*
G01*
G37*
G36*
G01*
X139919000Y-100179894D02*
X139919000Y-101496106D01*
G75*
G02*
X139651106Y-101764000I-267894J0D01*
G01*
X138659894Y-101764000D01*
G75*
G02*
X138392000Y-101496106I0J267894D01*
G01*
X138392000Y-100179894D01*
G75*
G02*
X138659894Y-99912000I267894J0D01*
G01*
X139651106Y-99912000D01*
G75*
G02*
X139919000Y-100179894I0J-267894D01*
G01*
G37*
G36*
G01*
X136944000Y-100179894D02*
X136944000Y-101496106D01*
G75*
G02*
X136676106Y-101764000I-267894J0D01*
G01*
X135684894Y-101764000D01*
G75*
G02*
X135417000Y-101496106I0J267894D01*
G01*
X135417000Y-100179894D01*
G75*
G02*
X135684894Y-99912000I267894J0D01*
G01*
X136676106Y-99912000D01*
G75*
G02*
X136944000Y-100179894I0J-267894D01*
G01*
G37*
G36*
G01*
X102654000Y-98338394D02*
X102654000Y-99654606D01*
G75*
G02*
X102386106Y-99922500I-267894J0D01*
G01*
X101394894Y-99922500D01*
G75*
G02*
X101127000Y-99654606I0J267894D01*
G01*
X101127000Y-98338394D01*
G75*
G02*
X101394894Y-98070500I267894J0D01*
G01*
X102386106Y-98070500D01*
G75*
G02*
X102654000Y-98338394I0J-267894D01*
G01*
G37*
G36*
G01*
X105629000Y-98338394D02*
X105629000Y-99654606D01*
G75*
G02*
X105361106Y-99922500I-267894J0D01*
G01*
X104369894Y-99922500D01*
G75*
G02*
X104102000Y-99654606I0J267894D01*
G01*
X104102000Y-98338394D01*
G75*
G02*
X104369894Y-98070500I267894J0D01*
G01*
X105361106Y-98070500D01*
G75*
G02*
X105629000Y-98338394I0J-267894D01*
G01*
G37*
G36*
G01*
X94083894Y-81950000D02*
X95400106Y-81950000D01*
G75*
G02*
X95668000Y-82217894I0J-267894D01*
G01*
X95668000Y-83209106D01*
G75*
G02*
X95400106Y-83477000I-267894J0D01*
G01*
X94083894Y-83477000D01*
G75*
G02*
X93816000Y-83209106I0J267894D01*
G01*
X93816000Y-82217894D01*
G75*
G02*
X94083894Y-81950000I267894J0D01*
G01*
G37*
G36*
G01*
X94083894Y-84925000D02*
X95400106Y-84925000D01*
G75*
G02*
X95668000Y-85192894I0J-267894D01*
G01*
X95668000Y-86184106D01*
G75*
G02*
X95400106Y-86452000I-267894J0D01*
G01*
X94083894Y-86452000D01*
G75*
G02*
X93816000Y-86184106I0J267894D01*
G01*
X93816000Y-85192894D01*
G75*
G02*
X94083894Y-84925000I267894J0D01*
G01*
G37*
G36*
G01*
X118086894Y-95974000D02*
X119403106Y-95974000D01*
G75*
G02*
X119671000Y-96241894I0J-267894D01*
G01*
X119671000Y-97233106D01*
G75*
G02*
X119403106Y-97501000I-267894J0D01*
G01*
X118086894Y-97501000D01*
G75*
G02*
X117819000Y-97233106I0J267894D01*
G01*
X117819000Y-96241894D01*
G75*
G02*
X118086894Y-95974000I267894J0D01*
G01*
G37*
G36*
G01*
X118086894Y-92999000D02*
X119403106Y-92999000D01*
G75*
G02*
X119671000Y-93266894I0J-267894D01*
G01*
X119671000Y-94258106D01*
G75*
G02*
X119403106Y-94526000I-267894J0D01*
G01*
X118086894Y-94526000D01*
G75*
G02*
X117819000Y-94258106I0J267894D01*
G01*
X117819000Y-93266894D01*
G75*
G02*
X118086894Y-92999000I267894J0D01*
G01*
G37*
G36*
G01*
X114020000Y-97004894D02*
X114020000Y-98321106D01*
G75*
G02*
X113752106Y-98589000I-267894J0D01*
G01*
X112760894Y-98589000D01*
G75*
G02*
X112493000Y-98321106I0J267894D01*
G01*
X112493000Y-97004894D01*
G75*
G02*
X112760894Y-96737000I267894J0D01*
G01*
X113752106Y-96737000D01*
G75*
G02*
X114020000Y-97004894I0J-267894D01*
G01*
G37*
G36*
G01*
X111045000Y-97004894D02*
X111045000Y-98321106D01*
G75*
G02*
X110777106Y-98589000I-267894J0D01*
G01*
X109785894Y-98589000D01*
G75*
G02*
X109518000Y-98321106I0J267894D01*
G01*
X109518000Y-97004894D01*
G75*
G02*
X109785894Y-96737000I267894J0D01*
G01*
X110777106Y-96737000D01*
G75*
G02*
X111045000Y-97004894I0J-267894D01*
G01*
G37*
G36*
G01*
X144056000Y-90146894D02*
X144056000Y-91463106D01*
G75*
G02*
X143788106Y-91731000I-267894J0D01*
G01*
X142796894Y-91731000D01*
G75*
G02*
X142529000Y-91463106I0J267894D01*
G01*
X142529000Y-90146894D01*
G75*
G02*
X142796894Y-89879000I267894J0D01*
G01*
X143788106Y-89879000D01*
G75*
G02*
X144056000Y-90146894I0J-267894D01*
G01*
G37*
G36*
G01*
X147031000Y-90146894D02*
X147031000Y-91463106D01*
G75*
G02*
X146763106Y-91731000I-267894J0D01*
G01*
X145771894Y-91731000D01*
G75*
G02*
X145504000Y-91463106I0J267894D01*
G01*
X145504000Y-90146894D01*
G75*
G02*
X145771894Y-89879000I267894J0D01*
G01*
X146763106Y-89879000D01*
G75*
G02*
X147031000Y-90146894I0J-267894D01*
G01*
G37*
G36*
G01*
X147067500Y-93829894D02*
X147067500Y-95146106D01*
G75*
G02*
X146799606Y-95414000I-267894J0D01*
G01*
X145808394Y-95414000D01*
G75*
G02*
X145540500Y-95146106I0J267894D01*
G01*
X145540500Y-93829894D01*
G75*
G02*
X145808394Y-93562000I267894J0D01*
G01*
X146799606Y-93562000D01*
G75*
G02*
X147067500Y-93829894I0J-267894D01*
G01*
G37*
G36*
G01*
X144092500Y-93829894D02*
X144092500Y-95146106D01*
G75*
G02*
X143824606Y-95414000I-267894J0D01*
G01*
X142833394Y-95414000D01*
G75*
G02*
X142565500Y-95146106I0J267894D01*
G01*
X142565500Y-93829894D01*
G75*
G02*
X142833394Y-93562000I267894J0D01*
G01*
X143824606Y-93562000D01*
G75*
G02*
X144092500Y-93829894I0J-267894D01*
G01*
G37*
M02*
