G04 #@! TF.GenerationSoftware,KiCad,Pcbnew,(5.1.9)-1*
G04 #@! TF.CreationDate,2021-04-14T09:49:37+02:00*
G04 #@! TF.ProjectId,Copy_bachelorproef morse,436f7079-5f62-4616-9368-656c6f727072,rev?*
G04 #@! TF.SameCoordinates,Original*
G04 #@! TF.FileFunction,Soldermask,Bot*
G04 #@! TF.FilePolarity,Negative*
%FSLAX46Y46*%
G04 Gerber Fmt 4.6, Leading zero omitted, Abs format (unit mm)*
G04 Created by KiCad (PCBNEW (5.1.9)-1) date 2021-04-14 09:49:37*
%MOMM*%
%LPD*%
G01*
G04 APERTURE LIST*
%ADD10C,2.202000*%
%ADD11C,0.602000*%
%ADD12O,2.102000X2.102000*%
%ADD13C,2.102000*%
%ADD14C,1.402000*%
G04 APERTURE END LIST*
D10*
X92329000Y-102743000D03*
X91821000Y-71628000D03*
X156972000Y-71501000D03*
X156591000Y-102870000D03*
D11*
X129527500Y-82320000D03*
X131362500Y-82320000D03*
X128610000Y-83237500D03*
X130445000Y-83237500D03*
X132280000Y-83237500D03*
X129527500Y-84155000D03*
X131362500Y-84155000D03*
X128610000Y-85072500D03*
X130445000Y-85072500D03*
X132280000Y-85072500D03*
X129527500Y-85990000D03*
X131362500Y-85990000D03*
G36*
G01*
X150911000Y-85360000D02*
X150911000Y-87360000D01*
G75*
G02*
X150860000Y-87411000I-51000J0D01*
G01*
X148860000Y-87411000D01*
G75*
G02*
X148809000Y-87360000I0J51000D01*
G01*
X148809000Y-85360000D01*
G75*
G02*
X148860000Y-85309000I51000J0D01*
G01*
X150860000Y-85309000D01*
G75*
G02*
X150911000Y-85360000I0J-51000D01*
G01*
G37*
D12*
X149860000Y-83820000D03*
X149860000Y-81280000D03*
X149860000Y-78740000D03*
G36*
G01*
X146466000Y-85360000D02*
X146466000Y-87360000D01*
G75*
G02*
X146415000Y-87411000I-51000J0D01*
G01*
X144415000Y-87411000D01*
G75*
G02*
X144364000Y-87360000I0J51000D01*
G01*
X144364000Y-85360000D01*
G75*
G02*
X144415000Y-85309000I51000J0D01*
G01*
X146415000Y-85309000D01*
G75*
G02*
X146466000Y-85360000I0J-51000D01*
G01*
G37*
X145415000Y-83820000D03*
G36*
G01*
X106621000Y-93615000D02*
X106621000Y-95615000D01*
G75*
G02*
X106570000Y-95666000I-51000J0D01*
G01*
X104570000Y-95666000D01*
G75*
G02*
X104519000Y-95615000I0J51000D01*
G01*
X104519000Y-93615000D01*
G75*
G02*
X104570000Y-93564000I51000J0D01*
G01*
X106570000Y-93564000D01*
G75*
G02*
X106621000Y-93615000I0J-51000D01*
G01*
G37*
D13*
X105570000Y-92075000D03*
X105570000Y-89535000D03*
X105570000Y-86995000D03*
X97630000Y-86995000D03*
X97630000Y-89535000D03*
X97630000Y-92075000D03*
X97630000Y-94615000D03*
D14*
X107926500Y-100805000D03*
X112926500Y-100805000D03*
G36*
G01*
X111852000Y-83042000D02*
X111852000Y-81042000D01*
G75*
G02*
X111903000Y-80991000I51000J0D01*
G01*
X113903000Y-80991000D01*
G75*
G02*
X113954000Y-81042000I0J-51000D01*
G01*
X113954000Y-83042000D01*
G75*
G02*
X113903000Y-83093000I-51000J0D01*
G01*
X111903000Y-83093000D01*
G75*
G02*
X111852000Y-83042000I0J51000D01*
G01*
G37*
D12*
X112903000Y-84582000D03*
M02*
