G04 #@! TF.GenerationSoftware,KiCad,Pcbnew,(5.1.9)-1*
G04 #@! TF.CreationDate,2021-04-15T13:25:18+02:00*
G04 #@! TF.ProjectId,microfoon,6d696372-6f66-46f6-9f6e-2e6b69636164,rev?*
G04 #@! TF.SameCoordinates,Original*
G04 #@! TF.FileFunction,Soldermask,Bot*
G04 #@! TF.FilePolarity,Negative*
%FSLAX46Y46*%
G04 Gerber Fmt 4.6, Leading zero omitted, Abs format (unit mm)*
G04 Created by KiCad (PCBNEW (5.1.9)-1) date 2021-04-15 13:25:18*
%MOMM*%
%LPD*%
G01*
G04 APERTURE LIST*
%ADD10C,2.202000*%
%ADD11C,1.552000*%
%ADD12C,0.602000*%
%ADD13O,1.802000X1.802000*%
G04 APERTURE END LIST*
D10*
X86868000Y-42164000D03*
X86868000Y-72644000D03*
X140208000Y-72644000D03*
X140208000Y-42164000D03*
D11*
X137000000Y-58300000D03*
X137000000Y-63300000D03*
D12*
X108982500Y-50505000D03*
X110817500Y-50505000D03*
X108065000Y-51422500D03*
X109900000Y-51422500D03*
X111735000Y-51422500D03*
X108982500Y-52340000D03*
X110817500Y-52340000D03*
X108065000Y-53257500D03*
X109900000Y-53257500D03*
X111735000Y-53257500D03*
X108982500Y-54175000D03*
X110817500Y-54175000D03*
G36*
G01*
X97699000Y-53410000D02*
X97699000Y-51710000D01*
G75*
G02*
X97750000Y-51659000I51000J0D01*
G01*
X99450000Y-51659000D01*
G75*
G02*
X99501000Y-51710000I0J-51000D01*
G01*
X99501000Y-53410000D01*
G75*
G02*
X99450000Y-53461000I-51000J0D01*
G01*
X97750000Y-53461000D01*
G75*
G02*
X97699000Y-53410000I0J51000D01*
G01*
G37*
D13*
X98600000Y-55100000D03*
X98600000Y-57640000D03*
G36*
G01*
X132199000Y-47550000D02*
X132199000Y-45850000D01*
G75*
G02*
X132250000Y-45799000I51000J0D01*
G01*
X133950000Y-45799000D01*
G75*
G02*
X134001000Y-45850000I0J-51000D01*
G01*
X134001000Y-47550000D01*
G75*
G02*
X133950000Y-47601000I-51000J0D01*
G01*
X132250000Y-47601000D01*
G75*
G02*
X132199000Y-47550000I0J51000D01*
G01*
G37*
X133100000Y-49240000D03*
X133100000Y-51780000D03*
X133100000Y-54320000D03*
X129200000Y-46600000D03*
X129200000Y-49140000D03*
X129200000Y-51680000D03*
G36*
G01*
X130101000Y-53370000D02*
X130101000Y-55070000D01*
G75*
G02*
X130050000Y-55121000I-51000J0D01*
G01*
X128350000Y-55121000D01*
G75*
G02*
X128299000Y-55070000I0J51000D01*
G01*
X128299000Y-53370000D01*
G75*
G02*
X128350000Y-53319000I51000J0D01*
G01*
X130050000Y-53319000D01*
G75*
G02*
X130101000Y-53370000I0J-51000D01*
G01*
G37*
G36*
G01*
X121999000Y-55950000D02*
X121999000Y-54250000D01*
G75*
G02*
X122050000Y-54199000I51000J0D01*
G01*
X123750000Y-54199000D01*
G75*
G02*
X123801000Y-54250000I0J-51000D01*
G01*
X123801000Y-55950000D01*
G75*
G02*
X123750000Y-56001000I-51000J0D01*
G01*
X122050000Y-56001000D01*
G75*
G02*
X121999000Y-55950000I0J51000D01*
G01*
G37*
X122900000Y-57640000D03*
M02*
