M48
INCH,TZ
T1C0.0118
T2C0.0157
T3C0.0197
T4C0.0236
T5C0.0315
T6C0.0335
T7C0.0354
T8C0.0394
%
G90
G05
T1
X42545Y-20968
T2
X39200Y-17000
X39409Y-24291
X39724Y-20154
X42545Y-20245
X42906Y-19884
X42906Y-20606
X42906Y-21329
X43268Y-20245
X43268Y-20968
X43629Y-19884
X43629Y-20606
X43629Y-21329
X43990Y-20245
X43990Y-20968
X47717Y-19646
X47736Y-19154
X49488Y-17480
X50866Y-19346
X54685Y-19921
T3
X36400Y-18654
X49783Y-18701
X51220Y-17362
T4
X55000Y-22559
X55000Y-25315
T5
X49331Y-21654
T6
X53937Y-22953
X53937Y-24921
T7
X53898Y-19921
T8
X38819Y-20693
X38819Y-21693
X38819Y-22693
X45472Y-26063
X48386Y-21693
X48386Y-22693
X48937Y-28189
X50866Y-18346
X50866Y-19346
X50866Y-20346
X50866Y-21346
X52402Y-18386
X52402Y-19386
X52402Y-20386
X52402Y-21386
T0
M30
