G04 #@! TF.GenerationSoftware,KiCad,Pcbnew,(5.1.9)-1*
G04 #@! TF.CreationDate,2021-04-15T13:25:18+02:00*
G04 #@! TF.ProjectId,microfoon,6d696372-6f66-46f6-9f6e-2e6b69636164,rev?*
G04 #@! TF.SameCoordinates,Original*
G04 #@! TF.FileFunction,Soldermask,Top*
G04 #@! TF.FilePolarity,Negative*
%FSLAX46Y46*%
G04 Gerber Fmt 4.6, Leading zero omitted, Abs format (unit mm)*
G04 Created by KiCad (PCBNEW (5.1.9)-1) date 2021-04-15 13:25:18*
%MOMM*%
%LPD*%
G01*
G04 APERTURE LIST*
%ADD10C,0.000100*%
%ADD11C,2.202000*%
%ADD12C,1.552000*%
%ADD13O,2.002000X1.052000*%
%ADD14C,0.602000*%
%ADD15O,1.802000X1.802000*%
%ADD16C,0.100000*%
G04 APERTURE END LIST*
D10*
G36*
X138650000Y-64300000D02*
G01*
X138650000Y-63000000D01*
X140750000Y-63000000D01*
X140750000Y-64300000D01*
X140749210Y-64330090D01*
X140746850Y-64360100D01*
X140742920Y-64389950D01*
X140737430Y-64419550D01*
X140730410Y-64448820D01*
X140721860Y-64477680D01*
X140711810Y-64506060D01*
X140700290Y-64533870D01*
X140687329Y-64561040D01*
X140672965Y-64587500D01*
X140657236Y-64613170D01*
X140640185Y-64637980D01*
X140621859Y-64661860D01*
X140602308Y-64684750D01*
X140581586Y-64706590D01*
X140559750Y-64727310D01*
X140536859Y-64746860D01*
X140512977Y-64765180D01*
X140488167Y-64782240D01*
X140462500Y-64797960D01*
X140436045Y-64812330D01*
X140408874Y-64825290D01*
X140381062Y-64836810D01*
X140352685Y-64846860D01*
X140323821Y-64855410D01*
X140294549Y-64862430D01*
X140264950Y-64867920D01*
X140235104Y-64871850D01*
X140205093Y-64874210D01*
X140175000Y-64875000D01*
X139225000Y-64875000D01*
X139194907Y-64874210D01*
X139164896Y-64871850D01*
X139135050Y-64867920D01*
X139105451Y-64862430D01*
X139076179Y-64855410D01*
X139047315Y-64846860D01*
X139018938Y-64836810D01*
X138991126Y-64825290D01*
X138963955Y-64812330D01*
X138937500Y-64797960D01*
X138911833Y-64782240D01*
X138887023Y-64765180D01*
X138863141Y-64746860D01*
X138840250Y-64727310D01*
X138818414Y-64706590D01*
X138797692Y-64684750D01*
X138778141Y-64661860D01*
X138759815Y-64637980D01*
X138742764Y-64613170D01*
X138727035Y-64587500D01*
X138712671Y-64561040D01*
X138699710Y-64533870D01*
X138688190Y-64506060D01*
X138678140Y-64477680D01*
X138669590Y-64448820D01*
X138662570Y-64419550D01*
X138657080Y-64389950D01*
X138653150Y-64360100D01*
X138650790Y-64330090D01*
X138650000Y-64300000D01*
G37*
X138650000Y-64300000D02*
X138650000Y-63000000D01*
X140750000Y-63000000D01*
X140750000Y-64300000D01*
X140749210Y-64330090D01*
X140746850Y-64360100D01*
X140742920Y-64389950D01*
X140737430Y-64419550D01*
X140730410Y-64448820D01*
X140721860Y-64477680D01*
X140711810Y-64506060D01*
X140700290Y-64533870D01*
X140687329Y-64561040D01*
X140672965Y-64587500D01*
X140657236Y-64613170D01*
X140640185Y-64637980D01*
X140621859Y-64661860D01*
X140602308Y-64684750D01*
X140581586Y-64706590D01*
X140559750Y-64727310D01*
X140536859Y-64746860D01*
X140512977Y-64765180D01*
X140488167Y-64782240D01*
X140462500Y-64797960D01*
X140436045Y-64812330D01*
X140408874Y-64825290D01*
X140381062Y-64836810D01*
X140352685Y-64846860D01*
X140323821Y-64855410D01*
X140294549Y-64862430D01*
X140264950Y-64867920D01*
X140235104Y-64871850D01*
X140205093Y-64874210D01*
X140175000Y-64875000D01*
X139225000Y-64875000D01*
X139194907Y-64874210D01*
X139164896Y-64871850D01*
X139135050Y-64867920D01*
X139105451Y-64862430D01*
X139076179Y-64855410D01*
X139047315Y-64846860D01*
X139018938Y-64836810D01*
X138991126Y-64825290D01*
X138963955Y-64812330D01*
X138937500Y-64797960D01*
X138911833Y-64782240D01*
X138887023Y-64765180D01*
X138863141Y-64746860D01*
X138840250Y-64727310D01*
X138818414Y-64706590D01*
X138797692Y-64684750D01*
X138778141Y-64661860D01*
X138759815Y-64637980D01*
X138742764Y-64613170D01*
X138727035Y-64587500D01*
X138712671Y-64561040D01*
X138699710Y-64533870D01*
X138688190Y-64506060D01*
X138678140Y-64477680D01*
X138669590Y-64448820D01*
X138662570Y-64419550D01*
X138657080Y-64389950D01*
X138653150Y-64360100D01*
X138650790Y-64330090D01*
X138650000Y-64300000D01*
G36*
X138650000Y-57300000D02*
G01*
X138650000Y-58600000D01*
X140750000Y-58600000D01*
X140750000Y-57300000D01*
X140749210Y-57269910D01*
X140746850Y-57239900D01*
X140742920Y-57210050D01*
X140737430Y-57180450D01*
X140730410Y-57151180D01*
X140721860Y-57122320D01*
X140711810Y-57093940D01*
X140700290Y-57066130D01*
X140687329Y-57038960D01*
X140672965Y-57012500D01*
X140657236Y-56986830D01*
X140640185Y-56962020D01*
X140621859Y-56938140D01*
X140602308Y-56915250D01*
X140581586Y-56893410D01*
X140559750Y-56872690D01*
X140536859Y-56853140D01*
X140512977Y-56834820D01*
X140488167Y-56817760D01*
X140462500Y-56802040D01*
X140436045Y-56787670D01*
X140408874Y-56774710D01*
X140381062Y-56763190D01*
X140352685Y-56753140D01*
X140323821Y-56744590D01*
X140294549Y-56737570D01*
X140264950Y-56732080D01*
X140235104Y-56728150D01*
X140205093Y-56725790D01*
X140175000Y-56725000D01*
X139225000Y-56725000D01*
X139194907Y-56725790D01*
X139164896Y-56728150D01*
X139135050Y-56732080D01*
X139105451Y-56737570D01*
X139076179Y-56744590D01*
X139047315Y-56753140D01*
X139018938Y-56763190D01*
X138991126Y-56774710D01*
X138963955Y-56787670D01*
X138937500Y-56802040D01*
X138911833Y-56817760D01*
X138887023Y-56834820D01*
X138863141Y-56853140D01*
X138840250Y-56872690D01*
X138818414Y-56893410D01*
X138797692Y-56915250D01*
X138778141Y-56938140D01*
X138759815Y-56962020D01*
X138742764Y-56986830D01*
X138727035Y-57012500D01*
X138712671Y-57038960D01*
X138699710Y-57066130D01*
X138688190Y-57093940D01*
X138678140Y-57122320D01*
X138669590Y-57151180D01*
X138662570Y-57180450D01*
X138657080Y-57210050D01*
X138653150Y-57239900D01*
X138650790Y-57269910D01*
X138650000Y-57300000D01*
G37*
X138650000Y-57300000D02*
X138650000Y-58600000D01*
X140750000Y-58600000D01*
X140750000Y-57300000D01*
X140749210Y-57269910D01*
X140746850Y-57239900D01*
X140742920Y-57210050D01*
X140737430Y-57180450D01*
X140730410Y-57151180D01*
X140721860Y-57122320D01*
X140711810Y-57093940D01*
X140700290Y-57066130D01*
X140687329Y-57038960D01*
X140672965Y-57012500D01*
X140657236Y-56986830D01*
X140640185Y-56962020D01*
X140621859Y-56938140D01*
X140602308Y-56915250D01*
X140581586Y-56893410D01*
X140559750Y-56872690D01*
X140536859Y-56853140D01*
X140512977Y-56834820D01*
X140488167Y-56817760D01*
X140462500Y-56802040D01*
X140436045Y-56787670D01*
X140408874Y-56774710D01*
X140381062Y-56763190D01*
X140352685Y-56753140D01*
X140323821Y-56744590D01*
X140294549Y-56737570D01*
X140264950Y-56732080D01*
X140235104Y-56728150D01*
X140205093Y-56725790D01*
X140175000Y-56725000D01*
X139225000Y-56725000D01*
X139194907Y-56725790D01*
X139164896Y-56728150D01*
X139135050Y-56732080D01*
X139105451Y-56737570D01*
X139076179Y-56744590D01*
X139047315Y-56753140D01*
X139018938Y-56763190D01*
X138991126Y-56774710D01*
X138963955Y-56787670D01*
X138937500Y-56802040D01*
X138911833Y-56817760D01*
X138887023Y-56834820D01*
X138863141Y-56853140D01*
X138840250Y-56872690D01*
X138818414Y-56893410D01*
X138797692Y-56915250D01*
X138778141Y-56938140D01*
X138759815Y-56962020D01*
X138742764Y-56986830D01*
X138727035Y-57012500D01*
X138712671Y-57038960D01*
X138699710Y-57066130D01*
X138688190Y-57093940D01*
X138678140Y-57122320D01*
X138669590Y-57151180D01*
X138662570Y-57180450D01*
X138657080Y-57210050D01*
X138653150Y-57239900D01*
X138650790Y-57269910D01*
X138650000Y-57300000D01*
G36*
X138650000Y-64300000D02*
G01*
X138650000Y-63000000D01*
X140750000Y-63000000D01*
X140750000Y-64300000D01*
X140749210Y-64330090D01*
X140746850Y-64360100D01*
X140742920Y-64389950D01*
X140737430Y-64419550D01*
X140730410Y-64448820D01*
X140721860Y-64477680D01*
X140711810Y-64506060D01*
X140700290Y-64533870D01*
X140687329Y-64561040D01*
X140672965Y-64587500D01*
X140657236Y-64613170D01*
X140640185Y-64637980D01*
X140621859Y-64661860D01*
X140602308Y-64684750D01*
X140581586Y-64706590D01*
X140559750Y-64727310D01*
X140536859Y-64746860D01*
X140512977Y-64765180D01*
X140488167Y-64782240D01*
X140462500Y-64797960D01*
X140436045Y-64812330D01*
X140408874Y-64825290D01*
X140381062Y-64836810D01*
X140352685Y-64846860D01*
X140323821Y-64855410D01*
X140294549Y-64862430D01*
X140264950Y-64867920D01*
X140235104Y-64871850D01*
X140205093Y-64874210D01*
X140175000Y-64875000D01*
X139225000Y-64875000D01*
X139194907Y-64874210D01*
X139164896Y-64871850D01*
X139135050Y-64867920D01*
X139105451Y-64862430D01*
X139076179Y-64855410D01*
X139047315Y-64846860D01*
X139018938Y-64836810D01*
X138991126Y-64825290D01*
X138963955Y-64812330D01*
X138937500Y-64797960D01*
X138911833Y-64782240D01*
X138887023Y-64765180D01*
X138863141Y-64746860D01*
X138840250Y-64727310D01*
X138818414Y-64706590D01*
X138797692Y-64684750D01*
X138778141Y-64661860D01*
X138759815Y-64637980D01*
X138742764Y-64613170D01*
X138727035Y-64587500D01*
X138712671Y-64561040D01*
X138699710Y-64533870D01*
X138688190Y-64506060D01*
X138678140Y-64477680D01*
X138669590Y-64448820D01*
X138662570Y-64419550D01*
X138657080Y-64389950D01*
X138653150Y-64360100D01*
X138650790Y-64330090D01*
X138650000Y-64300000D01*
G37*
X138650000Y-64300000D02*
X138650000Y-63000000D01*
X140750000Y-63000000D01*
X140750000Y-64300000D01*
X140749210Y-64330090D01*
X140746850Y-64360100D01*
X140742920Y-64389950D01*
X140737430Y-64419550D01*
X140730410Y-64448820D01*
X140721860Y-64477680D01*
X140711810Y-64506060D01*
X140700290Y-64533870D01*
X140687329Y-64561040D01*
X140672965Y-64587500D01*
X140657236Y-64613170D01*
X140640185Y-64637980D01*
X140621859Y-64661860D01*
X140602308Y-64684750D01*
X140581586Y-64706590D01*
X140559750Y-64727310D01*
X140536859Y-64746860D01*
X140512977Y-64765180D01*
X140488167Y-64782240D01*
X140462500Y-64797960D01*
X140436045Y-64812330D01*
X140408874Y-64825290D01*
X140381062Y-64836810D01*
X140352685Y-64846860D01*
X140323821Y-64855410D01*
X140294549Y-64862430D01*
X140264950Y-64867920D01*
X140235104Y-64871850D01*
X140205093Y-64874210D01*
X140175000Y-64875000D01*
X139225000Y-64875000D01*
X139194907Y-64874210D01*
X139164896Y-64871850D01*
X139135050Y-64867920D01*
X139105451Y-64862430D01*
X139076179Y-64855410D01*
X139047315Y-64846860D01*
X139018938Y-64836810D01*
X138991126Y-64825290D01*
X138963955Y-64812330D01*
X138937500Y-64797960D01*
X138911833Y-64782240D01*
X138887023Y-64765180D01*
X138863141Y-64746860D01*
X138840250Y-64727310D01*
X138818414Y-64706590D01*
X138797692Y-64684750D01*
X138778141Y-64661860D01*
X138759815Y-64637980D01*
X138742764Y-64613170D01*
X138727035Y-64587500D01*
X138712671Y-64561040D01*
X138699710Y-64533870D01*
X138688190Y-64506060D01*
X138678140Y-64477680D01*
X138669590Y-64448820D01*
X138662570Y-64419550D01*
X138657080Y-64389950D01*
X138653150Y-64360100D01*
X138650790Y-64330090D01*
X138650000Y-64300000D01*
G36*
X138650000Y-57300000D02*
G01*
X138650000Y-58600000D01*
X140750000Y-58600000D01*
X140750000Y-57300000D01*
X140749210Y-57269910D01*
X140746850Y-57239900D01*
X140742920Y-57210050D01*
X140737430Y-57180450D01*
X140730410Y-57151180D01*
X140721860Y-57122320D01*
X140711810Y-57093940D01*
X140700290Y-57066130D01*
X140687329Y-57038960D01*
X140672965Y-57012500D01*
X140657236Y-56986830D01*
X140640185Y-56962020D01*
X140621859Y-56938140D01*
X140602308Y-56915250D01*
X140581586Y-56893410D01*
X140559750Y-56872690D01*
X140536859Y-56853140D01*
X140512977Y-56834820D01*
X140488167Y-56817760D01*
X140462500Y-56802040D01*
X140436045Y-56787670D01*
X140408874Y-56774710D01*
X140381062Y-56763190D01*
X140352685Y-56753140D01*
X140323821Y-56744590D01*
X140294549Y-56737570D01*
X140264950Y-56732080D01*
X140235104Y-56728150D01*
X140205093Y-56725790D01*
X140175000Y-56725000D01*
X139225000Y-56725000D01*
X139194907Y-56725790D01*
X139164896Y-56728150D01*
X139135050Y-56732080D01*
X139105451Y-56737570D01*
X139076179Y-56744590D01*
X139047315Y-56753140D01*
X139018938Y-56763190D01*
X138991126Y-56774710D01*
X138963955Y-56787670D01*
X138937500Y-56802040D01*
X138911833Y-56817760D01*
X138887023Y-56834820D01*
X138863141Y-56853140D01*
X138840250Y-56872690D01*
X138818414Y-56893410D01*
X138797692Y-56915250D01*
X138778141Y-56938140D01*
X138759815Y-56962020D01*
X138742764Y-56986830D01*
X138727035Y-57012500D01*
X138712671Y-57038960D01*
X138699710Y-57066130D01*
X138688190Y-57093940D01*
X138678140Y-57122320D01*
X138669590Y-57151180D01*
X138662570Y-57180450D01*
X138657080Y-57210050D01*
X138653150Y-57239900D01*
X138650790Y-57269910D01*
X138650000Y-57300000D01*
G37*
X138650000Y-57300000D02*
X138650000Y-58600000D01*
X140750000Y-58600000D01*
X140750000Y-57300000D01*
X140749210Y-57269910D01*
X140746850Y-57239900D01*
X140742920Y-57210050D01*
X140737430Y-57180450D01*
X140730410Y-57151180D01*
X140721860Y-57122320D01*
X140711810Y-57093940D01*
X140700290Y-57066130D01*
X140687329Y-57038960D01*
X140672965Y-57012500D01*
X140657236Y-56986830D01*
X140640185Y-56962020D01*
X140621859Y-56938140D01*
X140602308Y-56915250D01*
X140581586Y-56893410D01*
X140559750Y-56872690D01*
X140536859Y-56853140D01*
X140512977Y-56834820D01*
X140488167Y-56817760D01*
X140462500Y-56802040D01*
X140436045Y-56787670D01*
X140408874Y-56774710D01*
X140381062Y-56763190D01*
X140352685Y-56753140D01*
X140323821Y-56744590D01*
X140294549Y-56737570D01*
X140264950Y-56732080D01*
X140235104Y-56728150D01*
X140205093Y-56725790D01*
X140175000Y-56725000D01*
X139225000Y-56725000D01*
X139194907Y-56725790D01*
X139164896Y-56728150D01*
X139135050Y-56732080D01*
X139105451Y-56737570D01*
X139076179Y-56744590D01*
X139047315Y-56753140D01*
X139018938Y-56763190D01*
X138991126Y-56774710D01*
X138963955Y-56787670D01*
X138937500Y-56802040D01*
X138911833Y-56817760D01*
X138887023Y-56834820D01*
X138863141Y-56853140D01*
X138840250Y-56872690D01*
X138818414Y-56893410D01*
X138797692Y-56915250D01*
X138778141Y-56938140D01*
X138759815Y-56962020D01*
X138742764Y-56986830D01*
X138727035Y-57012500D01*
X138712671Y-57038960D01*
X138699710Y-57066130D01*
X138688190Y-57093940D01*
X138678140Y-57122320D01*
X138669590Y-57151180D01*
X138662570Y-57180450D01*
X138657080Y-57210050D01*
X138653150Y-57239900D01*
X138650790Y-57269910D01*
X138650000Y-57300000D01*
D11*
X86868000Y-42164000D03*
X86868000Y-72644000D03*
X140208000Y-72644000D03*
X140208000Y-42164000D03*
G36*
G01*
X126855600Y-57876000D02*
X125544400Y-57876000D01*
G75*
G02*
X125274000Y-57605600I0J270400D01*
G01*
X125274000Y-56794400D01*
G75*
G02*
X125544400Y-56524000I270400J0D01*
G01*
X126855600Y-56524000D01*
G75*
G02*
X127126000Y-56794400I0J-270400D01*
G01*
X127126000Y-57605600D01*
G75*
G02*
X126855600Y-57876000I-270400J0D01*
G01*
G37*
G36*
G01*
X126855600Y-60676000D02*
X125544400Y-60676000D01*
G75*
G02*
X125274000Y-60405600I0J270400D01*
G01*
X125274000Y-59594400D01*
G75*
G02*
X125544400Y-59324000I270400J0D01*
G01*
X126855600Y-59324000D01*
G75*
G02*
X127126000Y-59594400I0J-270400D01*
G01*
X127126000Y-60405600D01*
G75*
G02*
X126855600Y-60676000I-270400J0D01*
G01*
G37*
G36*
G01*
X138224000Y-54055600D02*
X138224000Y-52744400D01*
G75*
G02*
X138494400Y-52474000I270400J0D01*
G01*
X139305600Y-52474000D01*
G75*
G02*
X139576000Y-52744400I0J-270400D01*
G01*
X139576000Y-54055600D01*
G75*
G02*
X139305600Y-54326000I-270400J0D01*
G01*
X138494400Y-54326000D01*
G75*
G02*
X138224000Y-54055600I0J270400D01*
G01*
G37*
G36*
G01*
X135424000Y-54055600D02*
X135424000Y-52744400D01*
G75*
G02*
X135694400Y-52474000I270400J0D01*
G01*
X136505600Y-52474000D01*
G75*
G02*
X136776000Y-52744400I0J-270400D01*
G01*
X136776000Y-54055600D01*
G75*
G02*
X136505600Y-54326000I-270400J0D01*
G01*
X135694400Y-54326000D01*
G75*
G02*
X135424000Y-54055600I0J270400D01*
G01*
G37*
G36*
G01*
X98892000Y-46375600D02*
X98892000Y-45064400D01*
G75*
G02*
X99162400Y-44794000I270400J0D01*
G01*
X99973600Y-44794000D01*
G75*
G02*
X100244000Y-45064400I0J-270400D01*
G01*
X100244000Y-46375600D01*
G75*
G02*
X99973600Y-46646000I-270400J0D01*
G01*
X99162400Y-46646000D01*
G75*
G02*
X98892000Y-46375600I0J270400D01*
G01*
G37*
G36*
G01*
X96092000Y-46375600D02*
X96092000Y-45064400D01*
G75*
G02*
X96362400Y-44794000I270400J0D01*
G01*
X97173600Y-44794000D01*
G75*
G02*
X97444000Y-45064400I0J-270400D01*
G01*
X97444000Y-46375600D01*
G75*
G02*
X97173600Y-46646000I-270400J0D01*
G01*
X96362400Y-46646000D01*
G75*
G02*
X96092000Y-46375600I0J270400D01*
G01*
G37*
G36*
G01*
X97976000Y-48844400D02*
X97976000Y-50155600D01*
G75*
G02*
X97705600Y-50426000I-270400J0D01*
G01*
X96894400Y-50426000D01*
G75*
G02*
X96624000Y-50155600I0J270400D01*
G01*
X96624000Y-48844400D01*
G75*
G02*
X96894400Y-48574000I270400J0D01*
G01*
X97705600Y-48574000D01*
G75*
G02*
X97976000Y-48844400I0J-270400D01*
G01*
G37*
G36*
G01*
X100776000Y-48844400D02*
X100776000Y-50155600D01*
G75*
G02*
X100505600Y-50426000I-270400J0D01*
G01*
X99694400Y-50426000D01*
G75*
G02*
X99424000Y-50155600I0J270400D01*
G01*
X99424000Y-48844400D01*
G75*
G02*
X99694400Y-48574000I270400J0D01*
G01*
X100505600Y-48574000D01*
G75*
G02*
X100776000Y-48844400I0J-270400D01*
G01*
G37*
G36*
G01*
X131124000Y-43855600D02*
X131124000Y-42544400D01*
G75*
G02*
X131394400Y-42274000I270400J0D01*
G01*
X132205600Y-42274000D01*
G75*
G02*
X132476000Y-42544400I0J-270400D01*
G01*
X132476000Y-43855600D01*
G75*
G02*
X132205600Y-44126000I-270400J0D01*
G01*
X131394400Y-44126000D01*
G75*
G02*
X131124000Y-43855600I0J270400D01*
G01*
G37*
G36*
G01*
X133924000Y-43855600D02*
X133924000Y-42544400D01*
G75*
G02*
X134194400Y-42274000I270400J0D01*
G01*
X135005600Y-42274000D01*
G75*
G02*
X135276000Y-42544400I0J-270400D01*
G01*
X135276000Y-43855600D01*
G75*
G02*
X135005600Y-44126000I-270400J0D01*
G01*
X134194400Y-44126000D01*
G75*
G02*
X133924000Y-43855600I0J270400D01*
G01*
G37*
G36*
G01*
X137700000Y-59751000D02*
X136350000Y-59751000D01*
G75*
G02*
X136299000Y-59700000I0J51000D01*
G01*
X136299000Y-59300000D01*
G75*
G02*
X136350000Y-59249000I51000J0D01*
G01*
X137700000Y-59249000D01*
G75*
G02*
X137751000Y-59300000I0J-51000D01*
G01*
X137751000Y-59700000D01*
G75*
G02*
X137700000Y-59751000I-51000J0D01*
G01*
G37*
G36*
G01*
X137700000Y-60401000D02*
X136350000Y-60401000D01*
G75*
G02*
X136299000Y-60350000I0J51000D01*
G01*
X136299000Y-59950000D01*
G75*
G02*
X136350000Y-59899000I51000J0D01*
G01*
X137700000Y-59899000D01*
G75*
G02*
X137751000Y-59950000I0J-51000D01*
G01*
X137751000Y-60350000D01*
G75*
G02*
X137700000Y-60401000I-51000J0D01*
G01*
G37*
G36*
G01*
X137700000Y-61051000D02*
X136350000Y-61051000D01*
G75*
G02*
X136299000Y-61000000I0J51000D01*
G01*
X136299000Y-60600000D01*
G75*
G02*
X136350000Y-60549000I51000J0D01*
G01*
X137700000Y-60549000D01*
G75*
G02*
X137751000Y-60600000I0J-51000D01*
G01*
X137751000Y-61000000D01*
G75*
G02*
X137700000Y-61051000I-51000J0D01*
G01*
G37*
G36*
G01*
X137700000Y-61701000D02*
X136350000Y-61701000D01*
G75*
G02*
X136299000Y-61650000I0J51000D01*
G01*
X136299000Y-61250000D01*
G75*
G02*
X136350000Y-61199000I51000J0D01*
G01*
X137700000Y-61199000D01*
G75*
G02*
X137751000Y-61250000I0J-51000D01*
G01*
X137751000Y-61650000D01*
G75*
G02*
X137700000Y-61701000I-51000J0D01*
G01*
G37*
G36*
G01*
X137700000Y-62351000D02*
X136350000Y-62351000D01*
G75*
G02*
X136299000Y-62300000I0J51000D01*
G01*
X136299000Y-61900000D01*
G75*
G02*
X136350000Y-61849000I51000J0D01*
G01*
X137700000Y-61849000D01*
G75*
G02*
X137751000Y-61900000I0J-51000D01*
G01*
X137751000Y-62300000D01*
G75*
G02*
X137700000Y-62351000I-51000J0D01*
G01*
G37*
D12*
X137000000Y-58300000D03*
X137000000Y-63300000D03*
G36*
G01*
X140650000Y-60601000D02*
X138750000Y-60601000D01*
G75*
G02*
X138699000Y-60550000I0J51000D01*
G01*
X138699000Y-59050000D01*
G75*
G02*
X138750000Y-58999000I51000J0D01*
G01*
X140650000Y-58999000D01*
G75*
G02*
X140701000Y-59050000I0J-51000D01*
G01*
X140701000Y-60550000D01*
G75*
G02*
X140650000Y-60601000I-51000J0D01*
G01*
G37*
G36*
G01*
X140650000Y-62601000D02*
X138750000Y-62601000D01*
G75*
G02*
X138699000Y-62550000I0J51000D01*
G01*
X138699000Y-61050000D01*
G75*
G02*
X138750000Y-60999000I51000J0D01*
G01*
X140650000Y-60999000D01*
G75*
G02*
X140701000Y-61050000I0J-51000D01*
G01*
X140701000Y-62550000D01*
G75*
G02*
X140650000Y-62601000I-51000J0D01*
G01*
G37*
D13*
X139700000Y-57300000D03*
X139700000Y-64300000D03*
G36*
G01*
X124251000Y-67350000D02*
X124251000Y-68850000D01*
G75*
G02*
X124200000Y-68901000I-51000J0D01*
G01*
X121900000Y-68901000D01*
G75*
G02*
X121849000Y-68850000I0J51000D01*
G01*
X121849000Y-67350000D01*
G75*
G02*
X121900000Y-67299000I51000J0D01*
G01*
X124200000Y-67299000D01*
G75*
G02*
X124251000Y-67350000I0J-51000D01*
G01*
G37*
G36*
G01*
X130951000Y-67350000D02*
X130951000Y-68850000D01*
G75*
G02*
X130900000Y-68901000I-51000J0D01*
G01*
X128600000Y-68901000D01*
G75*
G02*
X128549000Y-68850000I0J51000D01*
G01*
X128549000Y-67350000D01*
G75*
G02*
X128600000Y-67299000I51000J0D01*
G01*
X130900000Y-67299000D01*
G75*
G02*
X130951000Y-67350000I0J-51000D01*
G01*
G37*
G36*
G01*
X130951000Y-62850000D02*
X130951000Y-64350000D01*
G75*
G02*
X130900000Y-64401000I-51000J0D01*
G01*
X128600000Y-64401000D01*
G75*
G02*
X128549000Y-64350000I0J51000D01*
G01*
X128549000Y-62850000D01*
G75*
G02*
X128600000Y-62799000I51000J0D01*
G01*
X130900000Y-62799000D01*
G75*
G02*
X130951000Y-62850000I0J-51000D01*
G01*
G37*
G36*
G01*
X124251000Y-62850000D02*
X124251000Y-64350000D01*
G75*
G02*
X124200000Y-64401000I-51000J0D01*
G01*
X121900000Y-64401000D01*
G75*
G02*
X121849000Y-64350000I0J51000D01*
G01*
X121849000Y-62850000D01*
G75*
G02*
X121900000Y-62799000I51000J0D01*
G01*
X124200000Y-62799000D01*
G75*
G02*
X124251000Y-62850000I0J-51000D01*
G01*
G37*
G36*
G01*
X104399000Y-71400000D02*
X104399000Y-67600000D01*
G75*
G02*
X104450000Y-67549000I51000J0D01*
G01*
X106450000Y-67549000D01*
G75*
G02*
X106501000Y-67600000I0J-51000D01*
G01*
X106501000Y-71400000D01*
G75*
G02*
X106450000Y-71451000I-51000J0D01*
G01*
X104450000Y-71451000D01*
G75*
G02*
X104399000Y-71400000I0J51000D01*
G01*
G37*
G36*
G01*
X98099000Y-70250000D02*
X98099000Y-68750000D01*
G75*
G02*
X98150000Y-68699000I51000J0D01*
G01*
X100150000Y-68699000D01*
G75*
G02*
X100201000Y-68750000I0J-51000D01*
G01*
X100201000Y-70250000D01*
G75*
G02*
X100150000Y-70301000I-51000J0D01*
G01*
X98150000Y-70301000D01*
G75*
G02*
X98099000Y-70250000I0J51000D01*
G01*
G37*
G36*
G01*
X98099000Y-72550000D02*
X98099000Y-71050000D01*
G75*
G02*
X98150000Y-70999000I51000J0D01*
G01*
X100150000Y-70999000D01*
G75*
G02*
X100201000Y-71050000I0J-51000D01*
G01*
X100201000Y-72550000D01*
G75*
G02*
X100150000Y-72601000I-51000J0D01*
G01*
X98150000Y-72601000D01*
G75*
G02*
X98099000Y-72550000I0J51000D01*
G01*
G37*
G36*
G01*
X98099000Y-67950000D02*
X98099000Y-66450000D01*
G75*
G02*
X98150000Y-66399000I51000J0D01*
G01*
X100150000Y-66399000D01*
G75*
G02*
X100201000Y-66450000I0J-51000D01*
G01*
X100201000Y-67950000D01*
G75*
G02*
X100150000Y-68001000I-51000J0D01*
G01*
X98150000Y-68001000D01*
G75*
G02*
X98099000Y-67950000I0J51000D01*
G01*
G37*
G36*
G01*
X101349000Y-45290000D02*
X101349000Y-44390000D01*
G75*
G02*
X101400000Y-44339000I51000J0D01*
G01*
X103400000Y-44339000D01*
G75*
G02*
X103451000Y-44390000I0J-51000D01*
G01*
X103451000Y-45290000D01*
G75*
G02*
X103400000Y-45341000I-51000J0D01*
G01*
X101400000Y-45341000D01*
G75*
G02*
X101349000Y-45290000I0J51000D01*
G01*
G37*
G36*
G01*
X101349000Y-46560000D02*
X101349000Y-45660000D01*
G75*
G02*
X101400000Y-45609000I51000J0D01*
G01*
X103400000Y-45609000D01*
G75*
G02*
X103451000Y-45660000I0J-51000D01*
G01*
X103451000Y-46560000D01*
G75*
G02*
X103400000Y-46611000I-51000J0D01*
G01*
X101400000Y-46611000D01*
G75*
G02*
X101349000Y-46560000I0J51000D01*
G01*
G37*
G36*
G01*
X101349000Y-47830000D02*
X101349000Y-46930000D01*
G75*
G02*
X101400000Y-46879000I51000J0D01*
G01*
X103400000Y-46879000D01*
G75*
G02*
X103451000Y-46930000I0J-51000D01*
G01*
X103451000Y-47830000D01*
G75*
G02*
X103400000Y-47881000I-51000J0D01*
G01*
X101400000Y-47881000D01*
G75*
G02*
X101349000Y-47830000I0J51000D01*
G01*
G37*
G36*
G01*
X101349000Y-49100000D02*
X101349000Y-48200000D01*
G75*
G02*
X101400000Y-48149000I51000J0D01*
G01*
X103400000Y-48149000D01*
G75*
G02*
X103451000Y-48200000I0J-51000D01*
G01*
X103451000Y-49100000D01*
G75*
G02*
X103400000Y-49151000I-51000J0D01*
G01*
X101400000Y-49151000D01*
G75*
G02*
X101349000Y-49100000I0J51000D01*
G01*
G37*
G36*
G01*
X101349000Y-50370000D02*
X101349000Y-49470000D01*
G75*
G02*
X101400000Y-49419000I51000J0D01*
G01*
X103400000Y-49419000D01*
G75*
G02*
X103451000Y-49470000I0J-51000D01*
G01*
X103451000Y-50370000D01*
G75*
G02*
X103400000Y-50421000I-51000J0D01*
G01*
X101400000Y-50421000D01*
G75*
G02*
X101349000Y-50370000I0J51000D01*
G01*
G37*
G36*
G01*
X101349000Y-51640000D02*
X101349000Y-50740000D01*
G75*
G02*
X101400000Y-50689000I51000J0D01*
G01*
X103400000Y-50689000D01*
G75*
G02*
X103451000Y-50740000I0J-51000D01*
G01*
X103451000Y-51640000D01*
G75*
G02*
X103400000Y-51691000I-51000J0D01*
G01*
X101400000Y-51691000D01*
G75*
G02*
X101349000Y-51640000I0J51000D01*
G01*
G37*
G36*
G01*
X101349000Y-52910000D02*
X101349000Y-52010000D01*
G75*
G02*
X101400000Y-51959000I51000J0D01*
G01*
X103400000Y-51959000D01*
G75*
G02*
X103451000Y-52010000I0J-51000D01*
G01*
X103451000Y-52910000D01*
G75*
G02*
X103400000Y-52961000I-51000J0D01*
G01*
X101400000Y-52961000D01*
G75*
G02*
X101349000Y-52910000I0J51000D01*
G01*
G37*
G36*
G01*
X101349000Y-54180000D02*
X101349000Y-53280000D01*
G75*
G02*
X101400000Y-53229000I51000J0D01*
G01*
X103400000Y-53229000D01*
G75*
G02*
X103451000Y-53280000I0J-51000D01*
G01*
X103451000Y-54180000D01*
G75*
G02*
X103400000Y-54231000I-51000J0D01*
G01*
X101400000Y-54231000D01*
G75*
G02*
X101349000Y-54180000I0J51000D01*
G01*
G37*
G36*
G01*
X101349000Y-55450000D02*
X101349000Y-54550000D01*
G75*
G02*
X101400000Y-54499000I51000J0D01*
G01*
X103400000Y-54499000D01*
G75*
G02*
X103451000Y-54550000I0J-51000D01*
G01*
X103451000Y-55450000D01*
G75*
G02*
X103400000Y-55501000I-51000J0D01*
G01*
X101400000Y-55501000D01*
G75*
G02*
X101349000Y-55450000I0J51000D01*
G01*
G37*
G36*
G01*
X101349000Y-56720000D02*
X101349000Y-55820000D01*
G75*
G02*
X101400000Y-55769000I51000J0D01*
G01*
X103400000Y-55769000D01*
G75*
G02*
X103451000Y-55820000I0J-51000D01*
G01*
X103451000Y-56720000D01*
G75*
G02*
X103400000Y-56771000I-51000J0D01*
G01*
X101400000Y-56771000D01*
G75*
G02*
X101349000Y-56720000I0J51000D01*
G01*
G37*
G36*
G01*
X101349000Y-57990000D02*
X101349000Y-57090000D01*
G75*
G02*
X101400000Y-57039000I51000J0D01*
G01*
X103400000Y-57039000D01*
G75*
G02*
X103451000Y-57090000I0J-51000D01*
G01*
X103451000Y-57990000D01*
G75*
G02*
X103400000Y-58041000I-51000J0D01*
G01*
X101400000Y-58041000D01*
G75*
G02*
X101349000Y-57990000I0J51000D01*
G01*
G37*
G36*
G01*
X101349000Y-59260000D02*
X101349000Y-58360000D01*
G75*
G02*
X101400000Y-58309000I51000J0D01*
G01*
X103400000Y-58309000D01*
G75*
G02*
X103451000Y-58360000I0J-51000D01*
G01*
X103451000Y-59260000D01*
G75*
G02*
X103400000Y-59311000I-51000J0D01*
G01*
X101400000Y-59311000D01*
G75*
G02*
X101349000Y-59260000I0J51000D01*
G01*
G37*
G36*
G01*
X101349000Y-60530000D02*
X101349000Y-59630000D01*
G75*
G02*
X101400000Y-59579000I51000J0D01*
G01*
X103400000Y-59579000D01*
G75*
G02*
X103451000Y-59630000I0J-51000D01*
G01*
X103451000Y-60530000D01*
G75*
G02*
X103400000Y-60581000I-51000J0D01*
G01*
X101400000Y-60581000D01*
G75*
G02*
X101349000Y-60530000I0J51000D01*
G01*
G37*
G36*
G01*
X101349000Y-61800000D02*
X101349000Y-60900000D01*
G75*
G02*
X101400000Y-60849000I51000J0D01*
G01*
X103400000Y-60849000D01*
G75*
G02*
X103451000Y-60900000I0J-51000D01*
G01*
X103451000Y-61800000D01*
G75*
G02*
X103400000Y-61851000I-51000J0D01*
G01*
X101400000Y-61851000D01*
G75*
G02*
X101349000Y-61800000I0J51000D01*
G01*
G37*
G36*
G01*
X104684000Y-63350000D02*
X104684000Y-61350000D01*
G75*
G02*
X104735000Y-61299000I51000J0D01*
G01*
X105635000Y-61299000D01*
G75*
G02*
X105686000Y-61350000I0J-51000D01*
G01*
X105686000Y-63350000D01*
G75*
G02*
X105635000Y-63401000I-51000J0D01*
G01*
X104735000Y-63401000D01*
G75*
G02*
X104684000Y-63350000I0J51000D01*
G01*
G37*
G36*
G01*
X105954000Y-63350000D02*
X105954000Y-61350000D01*
G75*
G02*
X106005000Y-61299000I51000J0D01*
G01*
X106905000Y-61299000D01*
G75*
G02*
X106956000Y-61350000I0J-51000D01*
G01*
X106956000Y-63350000D01*
G75*
G02*
X106905000Y-63401000I-51000J0D01*
G01*
X106005000Y-63401000D01*
G75*
G02*
X105954000Y-63350000I0J51000D01*
G01*
G37*
G36*
G01*
X107224000Y-63350000D02*
X107224000Y-61350000D01*
G75*
G02*
X107275000Y-61299000I51000J0D01*
G01*
X108175000Y-61299000D01*
G75*
G02*
X108226000Y-61350000I0J-51000D01*
G01*
X108226000Y-63350000D01*
G75*
G02*
X108175000Y-63401000I-51000J0D01*
G01*
X107275000Y-63401000D01*
G75*
G02*
X107224000Y-63350000I0J51000D01*
G01*
G37*
G36*
G01*
X108494000Y-63350000D02*
X108494000Y-61350000D01*
G75*
G02*
X108545000Y-61299000I51000J0D01*
G01*
X109445000Y-61299000D01*
G75*
G02*
X109496000Y-61350000I0J-51000D01*
G01*
X109496000Y-63350000D01*
G75*
G02*
X109445000Y-63401000I-51000J0D01*
G01*
X108545000Y-63401000D01*
G75*
G02*
X108494000Y-63350000I0J51000D01*
G01*
G37*
G36*
G01*
X109764000Y-63350000D02*
X109764000Y-61350000D01*
G75*
G02*
X109815000Y-61299000I51000J0D01*
G01*
X110715000Y-61299000D01*
G75*
G02*
X110766000Y-61350000I0J-51000D01*
G01*
X110766000Y-63350000D01*
G75*
G02*
X110715000Y-63401000I-51000J0D01*
G01*
X109815000Y-63401000D01*
G75*
G02*
X109764000Y-63350000I0J51000D01*
G01*
G37*
G36*
G01*
X111034000Y-63350000D02*
X111034000Y-61350000D01*
G75*
G02*
X111085000Y-61299000I51000J0D01*
G01*
X111985000Y-61299000D01*
G75*
G02*
X112036000Y-61350000I0J-51000D01*
G01*
X112036000Y-63350000D01*
G75*
G02*
X111985000Y-63401000I-51000J0D01*
G01*
X111085000Y-63401000D01*
G75*
G02*
X111034000Y-63350000I0J51000D01*
G01*
G37*
G36*
G01*
X112304000Y-63350000D02*
X112304000Y-61350000D01*
G75*
G02*
X112355000Y-61299000I51000J0D01*
G01*
X113255000Y-61299000D01*
G75*
G02*
X113306000Y-61350000I0J-51000D01*
G01*
X113306000Y-63350000D01*
G75*
G02*
X113255000Y-63401000I-51000J0D01*
G01*
X112355000Y-63401000D01*
G75*
G02*
X112304000Y-63350000I0J51000D01*
G01*
G37*
G36*
G01*
X113574000Y-63350000D02*
X113574000Y-61350000D01*
G75*
G02*
X113625000Y-61299000I51000J0D01*
G01*
X114525000Y-61299000D01*
G75*
G02*
X114576000Y-61350000I0J-51000D01*
G01*
X114576000Y-63350000D01*
G75*
G02*
X114525000Y-63401000I-51000J0D01*
G01*
X113625000Y-63401000D01*
G75*
G02*
X113574000Y-63350000I0J51000D01*
G01*
G37*
G36*
G01*
X114844000Y-63350000D02*
X114844000Y-61350000D01*
G75*
G02*
X114895000Y-61299000I51000J0D01*
G01*
X115795000Y-61299000D01*
G75*
G02*
X115846000Y-61350000I0J-51000D01*
G01*
X115846000Y-63350000D01*
G75*
G02*
X115795000Y-63401000I-51000J0D01*
G01*
X114895000Y-63401000D01*
G75*
G02*
X114844000Y-63350000I0J51000D01*
G01*
G37*
G36*
G01*
X116114000Y-63350000D02*
X116114000Y-61350000D01*
G75*
G02*
X116165000Y-61299000I51000J0D01*
G01*
X117065000Y-61299000D01*
G75*
G02*
X117116000Y-61350000I0J-51000D01*
G01*
X117116000Y-63350000D01*
G75*
G02*
X117065000Y-63401000I-51000J0D01*
G01*
X116165000Y-63401000D01*
G75*
G02*
X116114000Y-63350000I0J51000D01*
G01*
G37*
G36*
G01*
X118349000Y-61800000D02*
X118349000Y-60900000D01*
G75*
G02*
X118400000Y-60849000I51000J0D01*
G01*
X120400000Y-60849000D01*
G75*
G02*
X120451000Y-60900000I0J-51000D01*
G01*
X120451000Y-61800000D01*
G75*
G02*
X120400000Y-61851000I-51000J0D01*
G01*
X118400000Y-61851000D01*
G75*
G02*
X118349000Y-61800000I0J51000D01*
G01*
G37*
G36*
G01*
X118349000Y-60530000D02*
X118349000Y-59630000D01*
G75*
G02*
X118400000Y-59579000I51000J0D01*
G01*
X120400000Y-59579000D01*
G75*
G02*
X120451000Y-59630000I0J-51000D01*
G01*
X120451000Y-60530000D01*
G75*
G02*
X120400000Y-60581000I-51000J0D01*
G01*
X118400000Y-60581000D01*
G75*
G02*
X118349000Y-60530000I0J51000D01*
G01*
G37*
G36*
G01*
X118349000Y-59260000D02*
X118349000Y-58360000D01*
G75*
G02*
X118400000Y-58309000I51000J0D01*
G01*
X120400000Y-58309000D01*
G75*
G02*
X120451000Y-58360000I0J-51000D01*
G01*
X120451000Y-59260000D01*
G75*
G02*
X120400000Y-59311000I-51000J0D01*
G01*
X118400000Y-59311000D01*
G75*
G02*
X118349000Y-59260000I0J51000D01*
G01*
G37*
G36*
G01*
X118349000Y-57990000D02*
X118349000Y-57090000D01*
G75*
G02*
X118400000Y-57039000I51000J0D01*
G01*
X120400000Y-57039000D01*
G75*
G02*
X120451000Y-57090000I0J-51000D01*
G01*
X120451000Y-57990000D01*
G75*
G02*
X120400000Y-58041000I-51000J0D01*
G01*
X118400000Y-58041000D01*
G75*
G02*
X118349000Y-57990000I0J51000D01*
G01*
G37*
G36*
G01*
X118349000Y-56720000D02*
X118349000Y-55820000D01*
G75*
G02*
X118400000Y-55769000I51000J0D01*
G01*
X120400000Y-55769000D01*
G75*
G02*
X120451000Y-55820000I0J-51000D01*
G01*
X120451000Y-56720000D01*
G75*
G02*
X120400000Y-56771000I-51000J0D01*
G01*
X118400000Y-56771000D01*
G75*
G02*
X118349000Y-56720000I0J51000D01*
G01*
G37*
G36*
G01*
X118349000Y-55450000D02*
X118349000Y-54550000D01*
G75*
G02*
X118400000Y-54499000I51000J0D01*
G01*
X120400000Y-54499000D01*
G75*
G02*
X120451000Y-54550000I0J-51000D01*
G01*
X120451000Y-55450000D01*
G75*
G02*
X120400000Y-55501000I-51000J0D01*
G01*
X118400000Y-55501000D01*
G75*
G02*
X118349000Y-55450000I0J51000D01*
G01*
G37*
G36*
G01*
X118349000Y-54180000D02*
X118349000Y-53280000D01*
G75*
G02*
X118400000Y-53229000I51000J0D01*
G01*
X120400000Y-53229000D01*
G75*
G02*
X120451000Y-53280000I0J-51000D01*
G01*
X120451000Y-54180000D01*
G75*
G02*
X120400000Y-54231000I-51000J0D01*
G01*
X118400000Y-54231000D01*
G75*
G02*
X118349000Y-54180000I0J51000D01*
G01*
G37*
G36*
G01*
X118349000Y-52910000D02*
X118349000Y-52010000D01*
G75*
G02*
X118400000Y-51959000I51000J0D01*
G01*
X120400000Y-51959000D01*
G75*
G02*
X120451000Y-52010000I0J-51000D01*
G01*
X120451000Y-52910000D01*
G75*
G02*
X120400000Y-52961000I-51000J0D01*
G01*
X118400000Y-52961000D01*
G75*
G02*
X118349000Y-52910000I0J51000D01*
G01*
G37*
G36*
G01*
X118349000Y-51640000D02*
X118349000Y-50740000D01*
G75*
G02*
X118400000Y-50689000I51000J0D01*
G01*
X120400000Y-50689000D01*
G75*
G02*
X120451000Y-50740000I0J-51000D01*
G01*
X120451000Y-51640000D01*
G75*
G02*
X120400000Y-51691000I-51000J0D01*
G01*
X118400000Y-51691000D01*
G75*
G02*
X118349000Y-51640000I0J51000D01*
G01*
G37*
G36*
G01*
X118349000Y-50370000D02*
X118349000Y-49470000D01*
G75*
G02*
X118400000Y-49419000I51000J0D01*
G01*
X120400000Y-49419000D01*
G75*
G02*
X120451000Y-49470000I0J-51000D01*
G01*
X120451000Y-50370000D01*
G75*
G02*
X120400000Y-50421000I-51000J0D01*
G01*
X118400000Y-50421000D01*
G75*
G02*
X118349000Y-50370000I0J51000D01*
G01*
G37*
G36*
G01*
X118349000Y-49100000D02*
X118349000Y-48200000D01*
G75*
G02*
X118400000Y-48149000I51000J0D01*
G01*
X120400000Y-48149000D01*
G75*
G02*
X120451000Y-48200000I0J-51000D01*
G01*
X120451000Y-49100000D01*
G75*
G02*
X120400000Y-49151000I-51000J0D01*
G01*
X118400000Y-49151000D01*
G75*
G02*
X118349000Y-49100000I0J51000D01*
G01*
G37*
G36*
G01*
X118349000Y-47830000D02*
X118349000Y-46930000D01*
G75*
G02*
X118400000Y-46879000I51000J0D01*
G01*
X120400000Y-46879000D01*
G75*
G02*
X120451000Y-46930000I0J-51000D01*
G01*
X120451000Y-47830000D01*
G75*
G02*
X120400000Y-47881000I-51000J0D01*
G01*
X118400000Y-47881000D01*
G75*
G02*
X118349000Y-47830000I0J51000D01*
G01*
G37*
G36*
G01*
X118349000Y-46560000D02*
X118349000Y-45660000D01*
G75*
G02*
X118400000Y-45609000I51000J0D01*
G01*
X120400000Y-45609000D01*
G75*
G02*
X120451000Y-45660000I0J-51000D01*
G01*
X120451000Y-46560000D01*
G75*
G02*
X120400000Y-46611000I-51000J0D01*
G01*
X118400000Y-46611000D01*
G75*
G02*
X118349000Y-46560000I0J51000D01*
G01*
G37*
G36*
G01*
X118349000Y-45290000D02*
X118349000Y-44390000D01*
G75*
G02*
X118400000Y-44339000I51000J0D01*
G01*
X120400000Y-44339000D01*
G75*
G02*
X120451000Y-44390000I0J-51000D01*
G01*
X120451000Y-45290000D01*
G75*
G02*
X120400000Y-45341000I-51000J0D01*
G01*
X118400000Y-45341000D01*
G75*
G02*
X118349000Y-45290000I0J51000D01*
G01*
G37*
D14*
X108982500Y-50505000D03*
X110817500Y-50505000D03*
X108065000Y-51422500D03*
X109900000Y-51422500D03*
X111735000Y-51422500D03*
X108982500Y-52340000D03*
X110817500Y-52340000D03*
X108065000Y-53257500D03*
X109900000Y-53257500D03*
X111735000Y-53257500D03*
X108982500Y-54175000D03*
X110817500Y-54175000D03*
G36*
G01*
X97699000Y-53410000D02*
X97699000Y-51710000D01*
G75*
G02*
X97750000Y-51659000I51000J0D01*
G01*
X99450000Y-51659000D01*
G75*
G02*
X99501000Y-51710000I0J-51000D01*
G01*
X99501000Y-53410000D01*
G75*
G02*
X99450000Y-53461000I-51000J0D01*
G01*
X97750000Y-53461000D01*
G75*
G02*
X97699000Y-53410000I0J51000D01*
G01*
G37*
D15*
X98600000Y-55100000D03*
X98600000Y-57640000D03*
G36*
G01*
X132199000Y-47550000D02*
X132199000Y-45850000D01*
G75*
G02*
X132250000Y-45799000I51000J0D01*
G01*
X133950000Y-45799000D01*
G75*
G02*
X134001000Y-45850000I0J-51000D01*
G01*
X134001000Y-47550000D01*
G75*
G02*
X133950000Y-47601000I-51000J0D01*
G01*
X132250000Y-47601000D01*
G75*
G02*
X132199000Y-47550000I0J51000D01*
G01*
G37*
X133100000Y-49240000D03*
X133100000Y-51780000D03*
X133100000Y-54320000D03*
X129200000Y-46600000D03*
X129200000Y-49140000D03*
X129200000Y-51680000D03*
G36*
G01*
X130101000Y-53370000D02*
X130101000Y-55070000D01*
G75*
G02*
X130050000Y-55121000I-51000J0D01*
G01*
X128350000Y-55121000D01*
G75*
G02*
X128299000Y-55070000I0J51000D01*
G01*
X128299000Y-53370000D01*
G75*
G02*
X128350000Y-53319000I51000J0D01*
G01*
X130050000Y-53319000D01*
G75*
G02*
X130101000Y-53370000I0J-51000D01*
G01*
G37*
G36*
G01*
X121999000Y-55950000D02*
X121999000Y-54250000D01*
G75*
G02*
X122050000Y-54199000I51000J0D01*
G01*
X123750000Y-54199000D01*
G75*
G02*
X123801000Y-54250000I0J-51000D01*
G01*
X123801000Y-55950000D01*
G75*
G02*
X123750000Y-56001000I-51000J0D01*
G01*
X122050000Y-56001000D01*
G75*
G02*
X121999000Y-55950000I0J51000D01*
G01*
G37*
X122900000Y-57640000D03*
G36*
G01*
X130195600Y-60676000D02*
X128884400Y-60676000D01*
G75*
G02*
X128614000Y-60405600I0J270400D01*
G01*
X128614000Y-59594400D01*
G75*
G02*
X128884400Y-59324000I270400J0D01*
G01*
X130195600Y-59324000D01*
G75*
G02*
X130466000Y-59594400I0J-270400D01*
G01*
X130466000Y-60405600D01*
G75*
G02*
X130195600Y-60676000I-270400J0D01*
G01*
G37*
G36*
G01*
X130195600Y-57876000D02*
X128884400Y-57876000D01*
G75*
G02*
X128614000Y-57605600I0J270400D01*
G01*
X128614000Y-56794400D01*
G75*
G02*
X128884400Y-56524000I270400J0D01*
G01*
X130195600Y-56524000D01*
G75*
G02*
X130466000Y-56794400I0J-270400D01*
G01*
X130466000Y-57605600D01*
G75*
G02*
X130195600Y-57876000I-270400J0D01*
G01*
G37*
G36*
G01*
X122900000Y-43899000D02*
X123700000Y-43899000D01*
G75*
G02*
X123751000Y-43950000I0J-51000D01*
G01*
X123751000Y-44850000D01*
G75*
G02*
X123700000Y-44901000I-51000J0D01*
G01*
X122900000Y-44901000D01*
G75*
G02*
X122849000Y-44850000I0J51000D01*
G01*
X122849000Y-43950000D01*
G75*
G02*
X122900000Y-43899000I51000J0D01*
G01*
G37*
G36*
G01*
X121950000Y-41899000D02*
X122750000Y-41899000D01*
G75*
G02*
X122801000Y-41950000I0J-51000D01*
G01*
X122801000Y-42850000D01*
G75*
G02*
X122750000Y-42901000I-51000J0D01*
G01*
X121950000Y-42901000D01*
G75*
G02*
X121899000Y-42850000I0J51000D01*
G01*
X121899000Y-41950000D01*
G75*
G02*
X121950000Y-41899000I51000J0D01*
G01*
G37*
G36*
G01*
X123850000Y-41899000D02*
X124650000Y-41899000D01*
G75*
G02*
X124701000Y-41950000I0J-51000D01*
G01*
X124701000Y-42850000D01*
G75*
G02*
X124650000Y-42901000I-51000J0D01*
G01*
X123850000Y-42901000D01*
G75*
G02*
X123799000Y-42850000I0J51000D01*
G01*
X123799000Y-41950000D01*
G75*
G02*
X123850000Y-41899000I51000J0D01*
G01*
G37*
G36*
G01*
X122499000Y-46950000D02*
X122499000Y-46150000D01*
G75*
G02*
X122550000Y-46099000I51000J0D01*
G01*
X123450000Y-46099000D01*
G75*
G02*
X123501000Y-46150000I0J-51000D01*
G01*
X123501000Y-46950000D01*
G75*
G02*
X123450000Y-47001000I-51000J0D01*
G01*
X122550000Y-47001000D01*
G75*
G02*
X122499000Y-46950000I0J51000D01*
G01*
G37*
G36*
G01*
X122499000Y-48850000D02*
X122499000Y-48050000D01*
G75*
G02*
X122550000Y-47999000I51000J0D01*
G01*
X123450000Y-47999000D01*
G75*
G02*
X123501000Y-48050000I0J-51000D01*
G01*
X123501000Y-48850000D01*
G75*
G02*
X123450000Y-48901000I-51000J0D01*
G01*
X122550000Y-48901000D01*
G75*
G02*
X122499000Y-48850000I0J51000D01*
G01*
G37*
G36*
G01*
X124499000Y-47900000D02*
X124499000Y-47100000D01*
G75*
G02*
X124550000Y-47049000I51000J0D01*
G01*
X125450000Y-47049000D01*
G75*
G02*
X125501000Y-47100000I0J-51000D01*
G01*
X125501000Y-47900000D01*
G75*
G02*
X125450000Y-47951000I-51000J0D01*
G01*
X124550000Y-47951000D01*
G75*
G02*
X124499000Y-47900000I0J51000D01*
G01*
G37*
G36*
G01*
X120224000Y-72255600D02*
X120224000Y-70944400D01*
G75*
G02*
X120494400Y-70674000I270400J0D01*
G01*
X121305600Y-70674000D01*
G75*
G02*
X121576000Y-70944400I0J-270400D01*
G01*
X121576000Y-72255600D01*
G75*
G02*
X121305600Y-72526000I-270400J0D01*
G01*
X120494400Y-72526000D01*
G75*
G02*
X120224000Y-72255600I0J270400D01*
G01*
G37*
G36*
G01*
X117424000Y-72255600D02*
X117424000Y-70944400D01*
G75*
G02*
X117694400Y-70674000I270400J0D01*
G01*
X118505600Y-70674000D01*
G75*
G02*
X118776000Y-70944400I0J-270400D01*
G01*
X118776000Y-72255600D01*
G75*
G02*
X118505600Y-72526000I-270400J0D01*
G01*
X117694400Y-72526000D01*
G75*
G02*
X117424000Y-72255600I0J270400D01*
G01*
G37*
G36*
G01*
X128424000Y-42255600D02*
X128424000Y-40944400D01*
G75*
G02*
X128694400Y-40674000I270400J0D01*
G01*
X129505600Y-40674000D01*
G75*
G02*
X129776000Y-40944400I0J-270400D01*
G01*
X129776000Y-42255600D01*
G75*
G02*
X129505600Y-42526000I-270400J0D01*
G01*
X128694400Y-42526000D01*
G75*
G02*
X128424000Y-42255600I0J270400D01*
G01*
G37*
G36*
G01*
X125624000Y-42255600D02*
X125624000Y-40944400D01*
G75*
G02*
X125894400Y-40674000I270400J0D01*
G01*
X126705600Y-40674000D01*
G75*
G02*
X126976000Y-40944400I0J-270400D01*
G01*
X126976000Y-42255600D01*
G75*
G02*
X126705600Y-42526000I-270400J0D01*
G01*
X125894400Y-42526000D01*
G75*
G02*
X125624000Y-42255600I0J270400D01*
G01*
G37*
G36*
G01*
X125124000Y-51955600D02*
X125124000Y-50644400D01*
G75*
G02*
X125394400Y-50374000I270400J0D01*
G01*
X126205600Y-50374000D01*
G75*
G02*
X126476000Y-50644400I0J-270400D01*
G01*
X126476000Y-51955600D01*
G75*
G02*
X126205600Y-52226000I-270400J0D01*
G01*
X125394400Y-52226000D01*
G75*
G02*
X125124000Y-51955600I0J270400D01*
G01*
G37*
G36*
G01*
X122324000Y-51955600D02*
X122324000Y-50644400D01*
G75*
G02*
X122594400Y-50374000I270400J0D01*
G01*
X123405600Y-50374000D01*
G75*
G02*
X123676000Y-50644400I0J-270400D01*
G01*
X123676000Y-51955600D01*
G75*
G02*
X123405600Y-52226000I-270400J0D01*
G01*
X122594400Y-52226000D01*
G75*
G02*
X122324000Y-51955600I0J270400D01*
G01*
G37*
G36*
G01*
X137555600Y-49476000D02*
X136244400Y-49476000D01*
G75*
G02*
X135974000Y-49205600I0J270400D01*
G01*
X135974000Y-48394400D01*
G75*
G02*
X136244400Y-48124000I270400J0D01*
G01*
X137555600Y-48124000D01*
G75*
G02*
X137826000Y-48394400I0J-270400D01*
G01*
X137826000Y-49205600D01*
G75*
G02*
X137555600Y-49476000I-270400J0D01*
G01*
G37*
G36*
G01*
X137555600Y-46676000D02*
X136244400Y-46676000D01*
G75*
G02*
X135974000Y-46405600I0J270400D01*
G01*
X135974000Y-45594400D01*
G75*
G02*
X136244400Y-45324000I270400J0D01*
G01*
X137555600Y-45324000D01*
G75*
G02*
X137826000Y-45594400I0J-270400D01*
G01*
X137826000Y-46405600D01*
G75*
G02*
X137555600Y-46676000I-270400J0D01*
G01*
G37*
G36*
G01*
X120055600Y-68876000D02*
X118744400Y-68876000D01*
G75*
G02*
X118474000Y-68605600I0J270400D01*
G01*
X118474000Y-67794400D01*
G75*
G02*
X118744400Y-67524000I270400J0D01*
G01*
X120055600Y-67524000D01*
G75*
G02*
X120326000Y-67794400I0J-270400D01*
G01*
X120326000Y-68605600D01*
G75*
G02*
X120055600Y-68876000I-270400J0D01*
G01*
G37*
G36*
G01*
X120055600Y-66076000D02*
X118744400Y-66076000D01*
G75*
G02*
X118474000Y-65805600I0J270400D01*
G01*
X118474000Y-64994400D01*
G75*
G02*
X118744400Y-64724000I270400J0D01*
G01*
X120055600Y-64724000D01*
G75*
G02*
X120326000Y-64994400I0J-270400D01*
G01*
X120326000Y-65805600D01*
G75*
G02*
X120055600Y-66076000I-270400J0D01*
G01*
G37*
G36*
G01*
X111349399Y-64169001D02*
X112660599Y-64169001D01*
G75*
G02*
X112930999Y-64439401I0J-270400D01*
G01*
X112930999Y-65250601D01*
G75*
G02*
X112660599Y-65521001I-270400J0D01*
G01*
X111349399Y-65521001D01*
G75*
G02*
X111078999Y-65250601I0J270400D01*
G01*
X111078999Y-64439401D01*
G75*
G02*
X111349399Y-64169001I270400J0D01*
G01*
G37*
G36*
G01*
X111349399Y-66969001D02*
X112660599Y-66969001D01*
G75*
G02*
X112930999Y-67239401I0J-270400D01*
G01*
X112930999Y-68050601D01*
G75*
G02*
X112660599Y-68321001I-270400J0D01*
G01*
X111349399Y-68321001D01*
G75*
G02*
X111078999Y-68050601I0J270400D01*
G01*
X111078999Y-67239401D01*
G75*
G02*
X111349399Y-66969001I270400J0D01*
G01*
G37*
G36*
G01*
X108009399Y-64129001D02*
X109320599Y-64129001D01*
G75*
G02*
X109590999Y-64399401I0J-270400D01*
G01*
X109590999Y-65210601D01*
G75*
G02*
X109320599Y-65481001I-270400J0D01*
G01*
X108009399Y-65481001D01*
G75*
G02*
X107738999Y-65210601I0J270400D01*
G01*
X107738999Y-64399401D01*
G75*
G02*
X108009399Y-64129001I270400J0D01*
G01*
G37*
G36*
G01*
X108009399Y-66929001D02*
X109320599Y-66929001D01*
G75*
G02*
X109590999Y-67199401I0J-270400D01*
G01*
X109590999Y-68010601D01*
G75*
G02*
X109320599Y-68281001I-270400J0D01*
G01*
X108009399Y-68281001D01*
G75*
G02*
X107738999Y-68010601I0J270400D01*
G01*
X107738999Y-67199401D01*
G75*
G02*
X108009399Y-66929001I270400J0D01*
G01*
G37*
G36*
G01*
X96033000Y-64491200D02*
X96033000Y-66572800D01*
G75*
G02*
X95772800Y-66833000I-260200J0D01*
G01*
X92191200Y-66833000D01*
G75*
G02*
X91931000Y-66572800I0J260200D01*
G01*
X91931000Y-64491200D01*
G75*
G02*
X92191200Y-64231000I260200J0D01*
G01*
X95772800Y-64231000D01*
G75*
G02*
X96033000Y-64491200I0J-260200D01*
G01*
G37*
G36*
G01*
X89933000Y-64491200D02*
X89933000Y-66572800D01*
G75*
G02*
X89672800Y-66833000I-260200J0D01*
G01*
X86091200Y-66833000D01*
G75*
G02*
X85831000Y-66572800I0J260200D01*
G01*
X85831000Y-64491200D01*
G75*
G02*
X86091200Y-64231000I260200J0D01*
G01*
X89672800Y-64231000D01*
G75*
G02*
X89933000Y-64491200I0J-260200D01*
G01*
G37*
G36*
G01*
X89933000Y-55347200D02*
X89933000Y-57428800D01*
G75*
G02*
X89672800Y-57689000I-260200J0D01*
G01*
X86091200Y-57689000D01*
G75*
G02*
X85831000Y-57428800I0J260200D01*
G01*
X85831000Y-55347200D01*
G75*
G02*
X86091200Y-55087000I260200J0D01*
G01*
X89672800Y-55087000D01*
G75*
G02*
X89933000Y-55347200I0J-260200D01*
G01*
G37*
G36*
G01*
X96033000Y-55347200D02*
X96033000Y-57428800D01*
G75*
G02*
X95772800Y-57689000I-260200J0D01*
G01*
X92191200Y-57689000D01*
G75*
G02*
X91931000Y-57428800I0J260200D01*
G01*
X91931000Y-55347200D01*
G75*
G02*
X92191200Y-55087000I260200J0D01*
G01*
X95772800Y-55087000D01*
G75*
G02*
X96033000Y-55347200I0J-260200D01*
G01*
G37*
D16*
G36*
X96034165Y-66571174D02*
G01*
X96035000Y-66572800D01*
X96035000Y-66666660D01*
X96034990Y-66666856D01*
X96031319Y-66704130D01*
X96031243Y-66704515D01*
X96022160Y-66734458D01*
X96022010Y-66734820D01*
X96007264Y-66762408D01*
X96007046Y-66762734D01*
X95987197Y-66786920D01*
X95986920Y-66787197D01*
X95962734Y-66807046D01*
X95962408Y-66807264D01*
X95934820Y-66822010D01*
X95934458Y-66822160D01*
X95904515Y-66831243D01*
X95904130Y-66831319D01*
X95866856Y-66834990D01*
X95866660Y-66835000D01*
X95772800Y-66835000D01*
X95771068Y-66834000D01*
X95771068Y-66832000D01*
X95772604Y-66831010D01*
X95823168Y-66826030D01*
X95871605Y-66811336D01*
X95916243Y-66787477D01*
X95955368Y-66755368D01*
X95987477Y-66716243D01*
X96011336Y-66671605D01*
X96026030Y-66623168D01*
X96031010Y-66572604D01*
X96032175Y-66570978D01*
X96034165Y-66571174D01*
G37*
G36*
X89934165Y-66571174D02*
G01*
X89935000Y-66572800D01*
X89935000Y-66666660D01*
X89934990Y-66666856D01*
X89931319Y-66704130D01*
X89931243Y-66704515D01*
X89922160Y-66734458D01*
X89922010Y-66734820D01*
X89907264Y-66762408D01*
X89907046Y-66762734D01*
X89887197Y-66786920D01*
X89886920Y-66787197D01*
X89862734Y-66807046D01*
X89862408Y-66807264D01*
X89834820Y-66822010D01*
X89834458Y-66822160D01*
X89804515Y-66831243D01*
X89804130Y-66831319D01*
X89766856Y-66834990D01*
X89766660Y-66835000D01*
X89672800Y-66835000D01*
X89671068Y-66834000D01*
X89671068Y-66832000D01*
X89672604Y-66831010D01*
X89723168Y-66826030D01*
X89771605Y-66811336D01*
X89816243Y-66787477D01*
X89855368Y-66755368D01*
X89887477Y-66716243D01*
X89911336Y-66671605D01*
X89926030Y-66623168D01*
X89931010Y-66572604D01*
X89932175Y-66570978D01*
X89934165Y-66571174D01*
G37*
G36*
X85832990Y-66572604D02*
G01*
X85837970Y-66623168D01*
X85852664Y-66671605D01*
X85876523Y-66716243D01*
X85908632Y-66755368D01*
X85947757Y-66787477D01*
X85992395Y-66811336D01*
X86040832Y-66826030D01*
X86091396Y-66831010D01*
X86093022Y-66832175D01*
X86092826Y-66834165D01*
X86091200Y-66835000D01*
X85997340Y-66835000D01*
X85997144Y-66834990D01*
X85959870Y-66831319D01*
X85959485Y-66831243D01*
X85929542Y-66822160D01*
X85929180Y-66822010D01*
X85901592Y-66807264D01*
X85901266Y-66807046D01*
X85877080Y-66787197D01*
X85876803Y-66786920D01*
X85856954Y-66762734D01*
X85856736Y-66762408D01*
X85841990Y-66734820D01*
X85841840Y-66734458D01*
X85832757Y-66704515D01*
X85832681Y-66704130D01*
X85829010Y-66666856D01*
X85829000Y-66666660D01*
X85829000Y-66572800D01*
X85830000Y-66571068D01*
X85832000Y-66571068D01*
X85832990Y-66572604D01*
G37*
G36*
X91932990Y-66572604D02*
G01*
X91937970Y-66623168D01*
X91952664Y-66671605D01*
X91976523Y-66716243D01*
X92008632Y-66755368D01*
X92047757Y-66787477D01*
X92092395Y-66811336D01*
X92140832Y-66826030D01*
X92191396Y-66831010D01*
X92193022Y-66832175D01*
X92192826Y-66834165D01*
X92191200Y-66835000D01*
X92097340Y-66835000D01*
X92097144Y-66834990D01*
X92059870Y-66831319D01*
X92059485Y-66831243D01*
X92029542Y-66822160D01*
X92029180Y-66822010D01*
X92001592Y-66807264D01*
X92001266Y-66807046D01*
X91977080Y-66787197D01*
X91976803Y-66786920D01*
X91956954Y-66762734D01*
X91956736Y-66762408D01*
X91941990Y-66734820D01*
X91941840Y-66734458D01*
X91932757Y-66704515D01*
X91932681Y-66704130D01*
X91929010Y-66666856D01*
X91929000Y-66666660D01*
X91929000Y-66572800D01*
X91930000Y-66571068D01*
X91932000Y-66571068D01*
X91932990Y-66572604D01*
G37*
G36*
X92192932Y-64230000D02*
G01*
X92192932Y-64232000D01*
X92191396Y-64232990D01*
X92140832Y-64237970D01*
X92092395Y-64252664D01*
X92047757Y-64276523D01*
X92008632Y-64308632D01*
X91976523Y-64347757D01*
X91952664Y-64392395D01*
X91937970Y-64440832D01*
X91932990Y-64491396D01*
X91931825Y-64493022D01*
X91929835Y-64492826D01*
X91929000Y-64491200D01*
X91929000Y-64397340D01*
X91929010Y-64397144D01*
X91932681Y-64359870D01*
X91932757Y-64359485D01*
X91941840Y-64329542D01*
X91941990Y-64329180D01*
X91956736Y-64301592D01*
X91956954Y-64301266D01*
X91976803Y-64277080D01*
X91977080Y-64276803D01*
X92001266Y-64256954D01*
X92001592Y-64256736D01*
X92029180Y-64241990D01*
X92029542Y-64241840D01*
X92059485Y-64232757D01*
X92059870Y-64232681D01*
X92097144Y-64229010D01*
X92097340Y-64229000D01*
X92191200Y-64229000D01*
X92192932Y-64230000D01*
G37*
G36*
X86092932Y-64230000D02*
G01*
X86092932Y-64232000D01*
X86091396Y-64232990D01*
X86040832Y-64237970D01*
X85992395Y-64252664D01*
X85947757Y-64276523D01*
X85908632Y-64308632D01*
X85876523Y-64347757D01*
X85852664Y-64392395D01*
X85837970Y-64440832D01*
X85832990Y-64491396D01*
X85831825Y-64493022D01*
X85829835Y-64492826D01*
X85829000Y-64491200D01*
X85829000Y-64397340D01*
X85829010Y-64397144D01*
X85832681Y-64359870D01*
X85832757Y-64359485D01*
X85841840Y-64329542D01*
X85841990Y-64329180D01*
X85856736Y-64301592D01*
X85856954Y-64301266D01*
X85876803Y-64277080D01*
X85877080Y-64276803D01*
X85901266Y-64256954D01*
X85901592Y-64256736D01*
X85929180Y-64241990D01*
X85929542Y-64241840D01*
X85959485Y-64232757D01*
X85959870Y-64232681D01*
X85997144Y-64229010D01*
X85997340Y-64229000D01*
X86091200Y-64229000D01*
X86092932Y-64230000D01*
G37*
G36*
X95866856Y-64229010D02*
G01*
X95904130Y-64232681D01*
X95904515Y-64232757D01*
X95934458Y-64241840D01*
X95934820Y-64241990D01*
X95962408Y-64256736D01*
X95962734Y-64256954D01*
X95986920Y-64276803D01*
X95987197Y-64277080D01*
X96007046Y-64301266D01*
X96007264Y-64301592D01*
X96022010Y-64329180D01*
X96022160Y-64329542D01*
X96031243Y-64359485D01*
X96031319Y-64359870D01*
X96034990Y-64397144D01*
X96035000Y-64397340D01*
X96035000Y-64491200D01*
X96034000Y-64492932D01*
X96032000Y-64492932D01*
X96031010Y-64491396D01*
X96026030Y-64440832D01*
X96011336Y-64392395D01*
X95987477Y-64347757D01*
X95955368Y-64308632D01*
X95916243Y-64276523D01*
X95871605Y-64252664D01*
X95823168Y-64237970D01*
X95772604Y-64232990D01*
X95770978Y-64231825D01*
X95771174Y-64229835D01*
X95772800Y-64229000D01*
X95866660Y-64229000D01*
X95866856Y-64229010D01*
G37*
G36*
X89766856Y-64229010D02*
G01*
X89804130Y-64232681D01*
X89804515Y-64232757D01*
X89834458Y-64241840D01*
X89834820Y-64241990D01*
X89862408Y-64256736D01*
X89862734Y-64256954D01*
X89886920Y-64276803D01*
X89887197Y-64277080D01*
X89907046Y-64301266D01*
X89907264Y-64301592D01*
X89922010Y-64329180D01*
X89922160Y-64329542D01*
X89931243Y-64359485D01*
X89931319Y-64359870D01*
X89934990Y-64397144D01*
X89935000Y-64397340D01*
X89935000Y-64491200D01*
X89934000Y-64492932D01*
X89932000Y-64492932D01*
X89931010Y-64491396D01*
X89926030Y-64440832D01*
X89911336Y-64392395D01*
X89887477Y-64347757D01*
X89855368Y-64308632D01*
X89816243Y-64276523D01*
X89771605Y-64252664D01*
X89723168Y-64237970D01*
X89672604Y-64232990D01*
X89670978Y-64231825D01*
X89671174Y-64229835D01*
X89672800Y-64229000D01*
X89766660Y-64229000D01*
X89766856Y-64229010D01*
G37*
G36*
X137355504Y-62350000D02*
G01*
X137355504Y-62352000D01*
X137353968Y-62352990D01*
X137329781Y-62355372D01*
X137306706Y-62362372D01*
X137285442Y-62373737D01*
X137266805Y-62389032D01*
X137251510Y-62407669D01*
X137240145Y-62428933D01*
X137233145Y-62452008D01*
X137230782Y-62475999D01*
X137233145Y-62499990D01*
X137240145Y-62523065D01*
X137251510Y-62544329D01*
X137266805Y-62562966D01*
X137285442Y-62578261D01*
X137301461Y-62586823D01*
X137302517Y-62588522D01*
X137301574Y-62590285D01*
X137299753Y-62590435D01*
X137224679Y-62559338D01*
X137075862Y-62529737D01*
X136924138Y-62529737D01*
X136775321Y-62559338D01*
X136700247Y-62590435D01*
X136698264Y-62590174D01*
X136697499Y-62588326D01*
X136698539Y-62586823D01*
X136714558Y-62578261D01*
X136733195Y-62562966D01*
X136748490Y-62544329D01*
X136759855Y-62523065D01*
X136766855Y-62499990D01*
X136769218Y-62475999D01*
X136766855Y-62452008D01*
X136759855Y-62428933D01*
X136748490Y-62407669D01*
X136733195Y-62389032D01*
X136714558Y-62373737D01*
X136693294Y-62362372D01*
X136670219Y-62355372D01*
X136646032Y-62352990D01*
X136644406Y-62351825D01*
X136644602Y-62349835D01*
X136646228Y-62349000D01*
X137353772Y-62349000D01*
X137355504Y-62350000D01*
G37*
G36*
X137752732Y-61700000D02*
G01*
X137753000Y-61701000D01*
X137753000Y-61849000D01*
X137752000Y-61850732D01*
X137751000Y-61851000D01*
X136299000Y-61851000D01*
X136297268Y-61850000D01*
X136297000Y-61849000D01*
X136297000Y-61701000D01*
X136298000Y-61699268D01*
X136299000Y-61699000D01*
X137751000Y-61699000D01*
X137752732Y-61700000D01*
G37*
G36*
X137752732Y-61050000D02*
G01*
X137753000Y-61051000D01*
X137753000Y-61199000D01*
X137752000Y-61200732D01*
X137751000Y-61201000D01*
X136299000Y-61201000D01*
X136297268Y-61200000D01*
X136297000Y-61199000D01*
X136297000Y-61051000D01*
X136298000Y-61049268D01*
X136299000Y-61049000D01*
X137751000Y-61049000D01*
X137752732Y-61050000D01*
G37*
G36*
X137752732Y-60400000D02*
G01*
X137753000Y-60401000D01*
X137753000Y-60549000D01*
X137752000Y-60550732D01*
X137751000Y-60551000D01*
X136299000Y-60551000D01*
X136297268Y-60550000D01*
X136297000Y-60549000D01*
X136297000Y-60401000D01*
X136298000Y-60399268D01*
X136299000Y-60399000D01*
X137751000Y-60399000D01*
X137752732Y-60400000D01*
G37*
G36*
X137752732Y-59750000D02*
G01*
X137753000Y-59751000D01*
X137753000Y-59899000D01*
X137752000Y-59900732D01*
X137751000Y-59901000D01*
X136299000Y-59901000D01*
X136297268Y-59900000D01*
X136297000Y-59899000D01*
X136297000Y-59751000D01*
X136298000Y-59749268D01*
X136299000Y-59749000D01*
X137751000Y-59749000D01*
X137752732Y-59750000D01*
G37*
G36*
X137301736Y-59009826D02*
G01*
X137302501Y-59011674D01*
X137301461Y-59013177D01*
X137285442Y-59021739D01*
X137266805Y-59037034D01*
X137251510Y-59055671D01*
X137240145Y-59076935D01*
X137233145Y-59100010D01*
X137230782Y-59124001D01*
X137233145Y-59147992D01*
X137240145Y-59171067D01*
X137251510Y-59192331D01*
X137266805Y-59210968D01*
X137285442Y-59226263D01*
X137306706Y-59237628D01*
X137329781Y-59244628D01*
X137353968Y-59247010D01*
X137355594Y-59248175D01*
X137355398Y-59250165D01*
X137353772Y-59251000D01*
X136646228Y-59251000D01*
X136644496Y-59250000D01*
X136644496Y-59248000D01*
X136646032Y-59247010D01*
X136670219Y-59244628D01*
X136693294Y-59237628D01*
X136714558Y-59226263D01*
X136733195Y-59210968D01*
X136748490Y-59192331D01*
X136759855Y-59171067D01*
X136766855Y-59147992D01*
X136769218Y-59124001D01*
X136766855Y-59100010D01*
X136759855Y-59076935D01*
X136748490Y-59055671D01*
X136733195Y-59037034D01*
X136714558Y-59021739D01*
X136698539Y-59013177D01*
X136697483Y-59011478D01*
X136698426Y-59009715D01*
X136700247Y-59009565D01*
X136775321Y-59040662D01*
X136924138Y-59070263D01*
X137075862Y-59070263D01*
X137224679Y-59040662D01*
X137299753Y-59009565D01*
X137301736Y-59009826D01*
G37*
G36*
X89934165Y-57427174D02*
G01*
X89935000Y-57428800D01*
X89935000Y-57522660D01*
X89934990Y-57522856D01*
X89931319Y-57560130D01*
X89931243Y-57560515D01*
X89922160Y-57590458D01*
X89922010Y-57590820D01*
X89907264Y-57618408D01*
X89907046Y-57618734D01*
X89887197Y-57642920D01*
X89886920Y-57643197D01*
X89862734Y-57663046D01*
X89862408Y-57663264D01*
X89834820Y-57678010D01*
X89834458Y-57678160D01*
X89804515Y-57687243D01*
X89804130Y-57687319D01*
X89766856Y-57690990D01*
X89766660Y-57691000D01*
X89672800Y-57691000D01*
X89671068Y-57690000D01*
X89671068Y-57688000D01*
X89672604Y-57687010D01*
X89723168Y-57682030D01*
X89771605Y-57667336D01*
X89816243Y-57643477D01*
X89855368Y-57611368D01*
X89887477Y-57572243D01*
X89911336Y-57527605D01*
X89926030Y-57479168D01*
X89931010Y-57428604D01*
X89932175Y-57426978D01*
X89934165Y-57427174D01*
G37*
G36*
X85832990Y-57428604D02*
G01*
X85837970Y-57479168D01*
X85852664Y-57527605D01*
X85876523Y-57572243D01*
X85908632Y-57611368D01*
X85947757Y-57643477D01*
X85992395Y-57667336D01*
X86040832Y-57682030D01*
X86091396Y-57687010D01*
X86093022Y-57688175D01*
X86092826Y-57690165D01*
X86091200Y-57691000D01*
X85997340Y-57691000D01*
X85997144Y-57690990D01*
X85959870Y-57687319D01*
X85959485Y-57687243D01*
X85929542Y-57678160D01*
X85929180Y-57678010D01*
X85901592Y-57663264D01*
X85901266Y-57663046D01*
X85877080Y-57643197D01*
X85876803Y-57642920D01*
X85856954Y-57618734D01*
X85856736Y-57618408D01*
X85841990Y-57590820D01*
X85841840Y-57590458D01*
X85832757Y-57560515D01*
X85832681Y-57560130D01*
X85829010Y-57522856D01*
X85829000Y-57522660D01*
X85829000Y-57428800D01*
X85830000Y-57427068D01*
X85832000Y-57427068D01*
X85832990Y-57428604D01*
G37*
G36*
X91932990Y-57428604D02*
G01*
X91937970Y-57479168D01*
X91952664Y-57527605D01*
X91976523Y-57572243D01*
X92008632Y-57611368D01*
X92047757Y-57643477D01*
X92092395Y-57667336D01*
X92140832Y-57682030D01*
X92191396Y-57687010D01*
X92193022Y-57688175D01*
X92192826Y-57690165D01*
X92191200Y-57691000D01*
X92097340Y-57691000D01*
X92097144Y-57690990D01*
X92059870Y-57687319D01*
X92059485Y-57687243D01*
X92029542Y-57678160D01*
X92029180Y-57678010D01*
X92001592Y-57663264D01*
X92001266Y-57663046D01*
X91977080Y-57643197D01*
X91976803Y-57642920D01*
X91956954Y-57618734D01*
X91956736Y-57618408D01*
X91941990Y-57590820D01*
X91941840Y-57590458D01*
X91932757Y-57560515D01*
X91932681Y-57560130D01*
X91929010Y-57522856D01*
X91929000Y-57522660D01*
X91929000Y-57428800D01*
X91930000Y-57427068D01*
X91932000Y-57427068D01*
X91932990Y-57428604D01*
G37*
G36*
X96034165Y-57427174D02*
G01*
X96035000Y-57428800D01*
X96035000Y-57522660D01*
X96034990Y-57522856D01*
X96031319Y-57560130D01*
X96031243Y-57560515D01*
X96022160Y-57590458D01*
X96022010Y-57590820D01*
X96007264Y-57618408D01*
X96007046Y-57618734D01*
X95987197Y-57642920D01*
X95986920Y-57643197D01*
X95962734Y-57663046D01*
X95962408Y-57663264D01*
X95934820Y-57678010D01*
X95934458Y-57678160D01*
X95904515Y-57687243D01*
X95904130Y-57687319D01*
X95866856Y-57690990D01*
X95866660Y-57691000D01*
X95772800Y-57691000D01*
X95771068Y-57690000D01*
X95771068Y-57688000D01*
X95772604Y-57687010D01*
X95823168Y-57682030D01*
X95871605Y-57667336D01*
X95916243Y-57643477D01*
X95955368Y-57611368D01*
X95987477Y-57572243D01*
X96011336Y-57527605D01*
X96026030Y-57479168D01*
X96031010Y-57428604D01*
X96032175Y-57426978D01*
X96034165Y-57427174D01*
G37*
G36*
X92192932Y-55086000D02*
G01*
X92192932Y-55088000D01*
X92191396Y-55088990D01*
X92140832Y-55093970D01*
X92092395Y-55108664D01*
X92047757Y-55132523D01*
X92008632Y-55164632D01*
X91976523Y-55203757D01*
X91952664Y-55248395D01*
X91937970Y-55296832D01*
X91932990Y-55347396D01*
X91931825Y-55349022D01*
X91929835Y-55348826D01*
X91929000Y-55347200D01*
X91929000Y-55253340D01*
X91929010Y-55253144D01*
X91932681Y-55215870D01*
X91932757Y-55215485D01*
X91941840Y-55185542D01*
X91941990Y-55185180D01*
X91956736Y-55157592D01*
X91956954Y-55157266D01*
X91976803Y-55133080D01*
X91977080Y-55132803D01*
X92001266Y-55112954D01*
X92001592Y-55112736D01*
X92029180Y-55097990D01*
X92029542Y-55097840D01*
X92059485Y-55088757D01*
X92059870Y-55088681D01*
X92097144Y-55085010D01*
X92097340Y-55085000D01*
X92191200Y-55085000D01*
X92192932Y-55086000D01*
G37*
G36*
X86092932Y-55086000D02*
G01*
X86092932Y-55088000D01*
X86091396Y-55088990D01*
X86040832Y-55093970D01*
X85992395Y-55108664D01*
X85947757Y-55132523D01*
X85908632Y-55164632D01*
X85876523Y-55203757D01*
X85852664Y-55248395D01*
X85837970Y-55296832D01*
X85832990Y-55347396D01*
X85831825Y-55349022D01*
X85829835Y-55348826D01*
X85829000Y-55347200D01*
X85829000Y-55253340D01*
X85829010Y-55253144D01*
X85832681Y-55215870D01*
X85832757Y-55215485D01*
X85841840Y-55185542D01*
X85841990Y-55185180D01*
X85856736Y-55157592D01*
X85856954Y-55157266D01*
X85876803Y-55133080D01*
X85877080Y-55132803D01*
X85901266Y-55112954D01*
X85901592Y-55112736D01*
X85929180Y-55097990D01*
X85929542Y-55097840D01*
X85959485Y-55088757D01*
X85959870Y-55088681D01*
X85997144Y-55085010D01*
X85997340Y-55085000D01*
X86091200Y-55085000D01*
X86092932Y-55086000D01*
G37*
G36*
X89766856Y-55085010D02*
G01*
X89804130Y-55088681D01*
X89804515Y-55088757D01*
X89834458Y-55097840D01*
X89834820Y-55097990D01*
X89862408Y-55112736D01*
X89862734Y-55112954D01*
X89886920Y-55132803D01*
X89887197Y-55133080D01*
X89907046Y-55157266D01*
X89907264Y-55157592D01*
X89922010Y-55185180D01*
X89922160Y-55185542D01*
X89931243Y-55215485D01*
X89931319Y-55215870D01*
X89934990Y-55253144D01*
X89935000Y-55253340D01*
X89935000Y-55347200D01*
X89934000Y-55348932D01*
X89932000Y-55348932D01*
X89931010Y-55347396D01*
X89926030Y-55296832D01*
X89911336Y-55248395D01*
X89887477Y-55203757D01*
X89855368Y-55164632D01*
X89816243Y-55132523D01*
X89771605Y-55108664D01*
X89723168Y-55093970D01*
X89672604Y-55088990D01*
X89670978Y-55087825D01*
X89671174Y-55085835D01*
X89672800Y-55085000D01*
X89766660Y-55085000D01*
X89766856Y-55085010D01*
G37*
G36*
X95866856Y-55085010D02*
G01*
X95904130Y-55088681D01*
X95904515Y-55088757D01*
X95934458Y-55097840D01*
X95934820Y-55097990D01*
X95962408Y-55112736D01*
X95962734Y-55112954D01*
X95986920Y-55132803D01*
X95987197Y-55133080D01*
X96007046Y-55157266D01*
X96007264Y-55157592D01*
X96022010Y-55185180D01*
X96022160Y-55185542D01*
X96031243Y-55215485D01*
X96031319Y-55215870D01*
X96034990Y-55253144D01*
X96035000Y-55253340D01*
X96035000Y-55347200D01*
X96034000Y-55348932D01*
X96032000Y-55348932D01*
X96031010Y-55347396D01*
X96026030Y-55296832D01*
X96011336Y-55248395D01*
X95987477Y-55203757D01*
X95955368Y-55164632D01*
X95916243Y-55132523D01*
X95871605Y-55108664D01*
X95823168Y-55093970D01*
X95772604Y-55088990D01*
X95770978Y-55087825D01*
X95771174Y-55085835D01*
X95772800Y-55085000D01*
X95866660Y-55085000D01*
X95866856Y-55085010D01*
G37*
M02*
